<?xml version="1.0" encoding="utf-8"?>
<svg version="1.1" xmlns:xlink="http://www.w3.org/1999/xlink" width="10px" height="15px" xmlns="http://www.w3.org/2000/svg">
  <defs>
    <pattern id="BGPattern" patternUnits="userSpaceOnUse" alignment="0 0" imageRepeat="None" />
    <mask fill="white" id="Clip38">
      <path d="M 5 14.330357142857144  C 5.064102564102565 14.330357142857144  5.096153846153847 14.285714285714286  5.096153846153846 14.196428571428571  C 5.096153846153847 14.107142857142858  5.064102564102565 14.0625  5 14.0625  C 4.763621794871796 14.0625  4.560296474358975 13.943917410714285  4.390024038461538 13.706752232142856  C 4.219751602564103 13.469587053571429  4.134615384615384 13.186383928571427  4.134615384615384 12.857142857142858  C 4.134615384615384 12.767857142857142  4.102564102564103 12.723214285714285  4.038461538461538 12.723214285714285  C 3.9743589743589745 12.723214285714285  3.942307692307692 12.767857142857142  3.942307692307692 12.857142857142858  C 3.942307692307692 13.264508928571429  4.045472756410256 13.611886160714286  4.251802884615384 13.899274553571429  C 4.458133012820513 14.186662946428571  4.707532051282052 14.330357142857144  5 14.330357142857144  Z M 2.692307692307692 4.821428571428571  C 2.692307692307692 7.790178571428572  2.159455128205128 10.111607142857142  1.09375 11.785714285714285  L 8.90625 11.785714285714285  C 7.840544871794872 10.111607142857142  7.3076923076923075 7.790178571428572  7.3076923076923075 4.821428571428571  C 7.3076923076923075 4.536830357142857  7.259615384615384 4.243861607142857  7.163461538461538 3.942522321428571  C 7.0673076923076925 3.6411830357142856  6.929086538461538 3.3537946428571415  6.748798076923077 3.0803571428571437  C 6.568509615384616 2.8069196428571423  6.3251201923076925 2.5823102678571437  6.0186298076923075 2.4065290178571437  C 5.712139423076923 2.2307477678571437  5.372596153846154 2.1428571428571437  5 2.1428571428571437  C 4.627403846153847 2.1428571428571437  4.287860576923077 2.2307477678571437  3.981370192307692 2.4065290178571437  C 3.674879807692308 2.5823102678571437  3.431490384615384 2.8069196428571423  3.251201923076923 3.0803571428571437  C 3.0709134615384617 3.3537946428571415  2.932692307692308 3.6411830357142856  2.8365384615384617 3.942522321428571  C 2.740384615384616 4.243861607142857  2.692307692307692 4.536830357142857  2.692307692307692 4.821428571428571  Z M 9.453125 11.049107142857142  C 9.617387820512821 11.305803571428573  9.799679487179487 11.551339285714285  10 11.785714285714285  C 10.000000000000002 12.075892857142858  9.923878205128206 12.32700892857143  9.771634615384615 12.5390625  C 9.619391025641026 12.75111607142857  9.439102564102566 12.857142857142858  9.230769230769232 12.857142857142858  L 6.538461538461538 12.857142857142858  C 6.538461538461538 13.448660714285715  6.388221153846154 13.953683035714285  6.087740384615384 14.372209821428571  C 5.787259615384616 14.790736607142856  5.424679487179488 15  5 15  C 4.575320512820513 15  4.212740384615384 14.790736607142856  3.912259615384616 14.372209821428571  C 3.6117788461538463 13.953683035714285  3.4615384615384617 13.448660714285715  3.4615384615384617 12.857142857142858  L 0.7692307692307693 12.857142857142858  C 0.560897435897436 12.857142857142858  0.3806089743589744 12.75111607142857  0.2283653846153846 12.5390625  C 0.07612179487179489 12.32700892857143  0 12.075892857142858  0 11.785714285714285  C 0.20032051282051289 11.551339285714285  0.38261217948717957 11.305803571428573  0.546875 11.049107142857142  C 0.7111378205128206 10.792410714285714  0.8814102564102565 10.458984375  1.0576923076923077 10.048828125  C 1.2339743589743593 9.638671875  1.3832131410256412 9.196428571428571  1.505408653846154 8.722098214285715  C 1.627604166666667 8.247767857142858  1.7277644230769231 7.672991071428572  1.8058894230769231 6.997767857142857  C 1.8840144230769231 6.322544642857142  1.9230769230769231 5.597098214285713  1.9230769230769231 4.821428571428571  C 1.9230769230769231 3.9732142857142847  2.1574519230769234 3.1849888392857144  2.626201923076923 2.4567522321428563  C 3.094951923076923 1.728515625  3.709935897435898 1.2862723214285703  4.471153846153847 1.130022321428571  C 4.439102564102565 1.0239955357142843  4.423076923076923 0.9151785714285715  4.423076923076923 0.803571428571429  C 4.423076923076923 0.5803571428571425  4.479166666666667 0.39062499999999944  4.591346153846153 0.234375  C 4.703525641025641 0.07812500000000056  4.839743589743589 0  5 0  C 5.160256410256411 0  5.29647435897436 0.07812500000000056  5.408653846153846 0.234375  C 5.520833333333334 0.39062499999999944  5.576923076923077 0.5803571428571425  5.576923076923077 0.803571428571429  C 5.576923076923077 0.9151785714285715  5.560897435897436 1.0239955357142843  5.528846153846154 1.130022321428571  C 6.290064102564104 1.2862723214285703  6.905048076923077 1.728515625  7.373798076923077 2.4567522321428563  C 7.842548076923077 3.1849888392857144  8.076923076923077 3.9732142857142847  8.076923076923077 4.821428571428571  C 8.076923076923077 5.597098214285713  8.115985576923077 6.322544642857142  8.194110576923077 6.997767857142857  C 8.272235576923077 7.672991071428572  8.372395833333334 8.247767857142858  8.494591346153847 8.722098214285715  C 8.61678685897436 9.196428571428571  8.76602564102564 9.638671875  8.942307692307693 10.048828125  C 9.118589743589745 10.458984375  9.288862179487182 10.792410714285714  9.453125 11.049107142857142  Z " fill-rule="evenodd" />
    </mask>
  </defs>
  <g transform="matrix(1 0 0 1 -271 -4 )">
    <path d="M 5 14.330357142857144  C 5.064102564102565 14.330357142857144  5.096153846153847 14.285714285714286  5.096153846153846 14.196428571428571  C 5.096153846153847 14.107142857142858  5.064102564102565 14.0625  5 14.0625  C 4.763621794871796 14.0625  4.560296474358975 13.943917410714285  4.390024038461538 13.706752232142856  C 4.219751602564103 13.469587053571429  4.134615384615384 13.186383928571427  4.134615384615384 12.857142857142858  C 4.134615384615384 12.767857142857142  4.102564102564103 12.723214285714285  4.038461538461538 12.723214285714285  C 3.9743589743589745 12.723214285714285  3.942307692307692 12.767857142857142  3.942307692307692 12.857142857142858  C 3.942307692307692 13.264508928571429  4.045472756410256 13.611886160714286  4.251802884615384 13.899274553571429  C 4.458133012820513 14.186662946428571  4.707532051282052 14.330357142857144  5 14.330357142857144  Z M 2.692307692307692 4.821428571428571  C 2.692307692307692 7.790178571428572  2.159455128205128 10.111607142857142  1.09375 11.785714285714285  L 8.90625 11.785714285714285  C 7.840544871794872 10.111607142857142  7.3076923076923075 7.790178571428572  7.3076923076923075 4.821428571428571  C 7.3076923076923075 4.536830357142857  7.259615384615384 4.243861607142857  7.163461538461538 3.942522321428571  C 7.0673076923076925 3.6411830357142856  6.929086538461538 3.3537946428571415  6.748798076923077 3.0803571428571437  C 6.568509615384616 2.8069196428571423  6.3251201923076925 2.5823102678571437  6.0186298076923075 2.4065290178571437  C 5.712139423076923 2.2307477678571437  5.372596153846154 2.1428571428571437  5 2.1428571428571437  C 4.627403846153847 2.1428571428571437  4.287860576923077 2.2307477678571437  3.981370192307692 2.4065290178571437  C 3.674879807692308 2.5823102678571437  3.431490384615384 2.8069196428571423  3.251201923076923 3.0803571428571437  C 3.0709134615384617 3.3537946428571415  2.932692307692308 3.6411830357142856  2.8365384615384617 3.942522321428571  C 2.740384615384616 4.243861607142857  2.692307692307692 4.536830357142857  2.692307692307692 4.821428571428571  Z M 9.453125 11.049107142857142  C 9.617387820512821 11.305803571428573  9.799679487179487 11.551339285714285  10 11.785714285714285  C 10.000000000000002 12.075892857142858  9.923878205128206 12.32700892857143  9.771634615384615 12.5390625  C 9.619391025641026 12.75111607142857  9.439102564102566 12.857142857142858  9.230769230769232 12.857142857142858  L 6.538461538461538 12.857142857142858  C 6.538461538461538 13.448660714285715  6.388221153846154 13.953683035714285  6.087740384615384 14.372209821428571  C 5.787259615384616 14.790736607142856  5.424679487179488 15  5 15  C 4.575320512820513 15  4.212740384615384 14.790736607142856  3.912259615384616 14.372209821428571  C 3.6117788461538463 13.953683035714285  3.4615384615384617 13.448660714285715  3.4615384615384617 12.857142857142858  L 0.7692307692307693 12.857142857142858  C 0.560897435897436 12.857142857142858  0.3806089743589744 12.75111607142857  0.2283653846153846 12.5390625  C 0.07612179487179489 12.32700892857143  0 12.075892857142858  0 11.785714285714285  C 0.20032051282051289 11.551339285714285  0.38261217948717957 11.305803571428573  0.546875 11.049107142857142  C 0.7111378205128206 10.792410714285714  0.8814102564102565 10.458984375  1.0576923076923077 10.048828125  C 1.2339743589743593 9.638671875  1.3832131410256412 9.196428571428571  1.505408653846154 8.722098214285715  C 1.627604166666667 8.247767857142858  1.7277644230769231 7.672991071428572  1.8058894230769231 6.997767857142857  C 1.8840144230769231 6.322544642857142  1.9230769230769231 5.597098214285713  1.9230769230769231 4.821428571428571  C 1.9230769230769231 3.9732142857142847  2.1574519230769234 3.1849888392857144  2.626201923076923 2.4567522321428563  C 3.094951923076923 1.728515625  3.709935897435898 1.2862723214285703  4.471153846153847 1.130022321428571  C 4.439102564102565 1.0239955357142843  4.423076923076923 0.9151785714285715  4.423076923076923 0.803571428571429  C 4.423076923076923 0.5803571428571425  4.479166666666667 0.39062499999999944  4.591346153846153 0.234375  C 4.703525641025641 0.07812500000000056  4.839743589743589 0  5 0  C 5.160256410256411 0  5.29647435897436 0.07812500000000056  5.408653846153846 0.234375  C 5.520833333333334 0.39062499999999944  5.576923076923077 0.5803571428571425  5.576923076923077 0.803571428571429  C 5.576923076923077 0.9151785714285715  5.560897435897436 1.0239955357142843  5.528846153846154 1.130022321428571  C 6.290064102564104 1.2862723214285703  6.905048076923077 1.728515625  7.373798076923077 2.4567522321428563  C 7.842548076923077 3.1849888392857144  8.076923076923077 3.9732142857142847  8.076923076923077 4.821428571428571  C 8.076923076923077 5.597098214285713  8.115985576923077 6.322544642857142  8.194110576923077 6.997767857142857  C 8.272235576923077 7.672991071428572  8.372395833333334 8.247767857142858  8.494591346153847 8.722098214285715  C 8.61678685897436 9.196428571428571  8.76602564102564 9.638671875  8.942307692307693 10.048828125  C 9.118589743589745 10.458984375  9.288862179487182 10.792410714285714  9.453125 11.049107142857142  Z " fill-rule="nonzero" fill="rgba(0, 0, 0, 1)" stroke="none" transform="matrix(1 0 0 1 271 4 )" class="fill" />
    <path d="M 5 14.330357142857144  C 5.064102564102565 14.330357142857144  5.096153846153847 14.285714285714286  5.096153846153846 14.196428571428571  C 5.096153846153847 14.107142857142858  5.064102564102565 14.0625  5 14.0625  C 4.763621794871796 14.0625  4.560296474358975 13.943917410714285  4.390024038461538 13.706752232142856  C 4.219751602564103 13.469587053571429  4.134615384615384 13.186383928571427  4.134615384615384 12.857142857142858  C 4.134615384615384 12.767857142857142  4.102564102564103 12.723214285714285  4.038461538461538 12.723214285714285  C 3.9743589743589745 12.723214285714285  3.942307692307692 12.767857142857142  3.942307692307692 12.857142857142858  C 3.942307692307692 13.264508928571429  4.045472756410256 13.611886160714286  4.251802884615384 13.899274553571429  C 4.458133012820513 14.186662946428571  4.707532051282052 14.330357142857144  5 14.330357142857144  Z " stroke-width="0" stroke-dasharray="0" stroke="rgba(255, 255, 255, 0)" fill="none" transform="matrix(1 0 0 1 271 4 )" class="stroke" mask="url(#Clip38)" />
    <path d="M 2.692307692307692 4.821428571428571  C 2.692307692307692 7.790178571428572  2.159455128205128 10.111607142857142  1.09375 11.785714285714285  L 8.90625 11.785714285714285  C 7.840544871794872 10.111607142857142  7.3076923076923075 7.790178571428572  7.3076923076923075 4.821428571428571  C 7.3076923076923075 4.536830357142857  7.259615384615384 4.243861607142857  7.163461538461538 3.942522321428571  C 7.0673076923076925 3.6411830357142856  6.929086538461538 3.3537946428571415  6.748798076923077 3.0803571428571437  C 6.568509615384616 2.8069196428571423  6.3251201923076925 2.5823102678571437  6.0186298076923075 2.4065290178571437  C 5.712139423076923 2.2307477678571437  5.372596153846154 2.1428571428571437  5 2.1428571428571437  C 4.627403846153847 2.1428571428571437  4.287860576923077 2.2307477678571437  3.981370192307692 2.4065290178571437  C 3.674879807692308 2.5823102678571437  3.431490384615384 2.8069196428571423  3.251201923076923 3.0803571428571437  C 3.0709134615384617 3.3537946428571415  2.932692307692308 3.6411830357142856  2.8365384615384617 3.942522321428571  C 2.740384615384616 4.243861607142857  2.692307692307692 4.536830357142857  2.692307692307692 4.821428571428571  Z " stroke-width="0" stroke-dasharray="0" stroke="rgba(255, 255, 255, 0)" fill="none" transform="matrix(1 0 0 1 271 4 )" class="stroke" mask="url(#Clip38)" />
    <path d="M 9.453125 11.049107142857142  C 9.617387820512821 11.305803571428573  9.799679487179487 11.551339285714285  10 11.785714285714285  C 10.000000000000002 12.075892857142858  9.923878205128206 12.32700892857143  9.771634615384615 12.5390625  C 9.619391025641026 12.75111607142857  9.439102564102566 12.857142857142858  9.230769230769232 12.857142857142858  L 6.538461538461538 12.857142857142858  C 6.538461538461538 13.448660714285715  6.388221153846154 13.953683035714285  6.087740384615384 14.372209821428571  C 5.787259615384616 14.790736607142856  5.424679487179488 15  5 15  C 4.575320512820513 15  4.212740384615384 14.790736607142856  3.912259615384616 14.372209821428571  C 3.6117788461538463 13.953683035714285  3.4615384615384617 13.448660714285715  3.4615384615384617 12.857142857142858  L 0.7692307692307693 12.857142857142858  C 0.560897435897436 12.857142857142858  0.3806089743589744 12.75111607142857  0.2283653846153846 12.5390625  C 0.07612179487179489 12.32700892857143  0 12.075892857142858  0 11.785714285714285  C 0.20032051282051289 11.551339285714285  0.38261217948717957 11.305803571428573  0.546875 11.049107142857142  C 0.7111378205128206 10.792410714285714  0.8814102564102565 10.458984375  1.0576923076923077 10.048828125  C 1.2339743589743593 9.638671875  1.3832131410256412 9.196428571428571  1.505408653846154 8.722098214285715  C 1.627604166666667 8.247767857142858  1.7277644230769231 7.672991071428572  1.8058894230769231 6.997767857142857  C 1.8840144230769231 6.322544642857142  1.9230769230769231 5.597098214285713  1.9230769230769231 4.821428571428571  C 1.9230769230769231 3.9732142857142847  2.1574519230769234 3.1849888392857144  2.626201923076923 2.4567522321428563  C 3.094951923076923 1.728515625  3.709935897435898 1.2862723214285703  4.471153846153847 1.130022321428571  C 4.439102564102565 1.0239955357142843  4.423076923076923 0.9151785714285715  4.423076923076923 0.803571428571429  C 4.423076923076923 0.5803571428571425  4.479166666666667 0.39062499999999944  4.591346153846153 0.234375  C 4.703525641025641 0.07812500000000056  4.839743589743589 0  5 0  C 5.160256410256411 0  5.29647435897436 0.07812500000000056  5.408653846153846 0.234375  C 5.520833333333334 0.39062499999999944  5.576923076923077 0.5803571428571425  5.576923076923077 0.803571428571429  C 5.576923076923077 0.9151785714285715  5.560897435897436 1.0239955357142843  5.528846153846154 1.130022321428571  C 6.290064102564104 1.2862723214285703  6.905048076923077 1.728515625  7.373798076923077 2.4567522321428563  C 7.842548076923077 3.1849888392857144  8.076923076923077 3.9732142857142847  8.076923076923077 4.821428571428571  C 8.076923076923077 5.597098214285713  8.115985576923077 6.322544642857142  8.194110576923077 6.997767857142857  C 8.272235576923077 7.672991071428572  8.372395833333334 8.247767857142858  8.494591346153847 8.722098214285715  C 8.61678685897436 9.196428571428571  8.76602564102564 9.638671875  8.942307692307693 10.048828125  C 9.118589743589745 10.458984375  9.288862179487182 10.792410714285714  9.453125 11.049107142857142  Z " stroke-width="0" stroke-dasharray="0" stroke="rgba(255, 255, 255, 0)" fill="none" transform="matrix(1 0 0 1 271 4 )" class="stroke" mask="url(#Clip38)" />
  </g>
</svg>