<?xml version="1.0" encoding="utf-8"?>
<svg version="1.1" xmlns:xlink="http://www.w3.org/1999/xlink" width="10px" height="15px" xmlns="http://www.w3.org/2000/svg">
  <defs>
    <pattern id="BGPattern" patternUnits="userSpaceOnUse" alignment="0 0" imageRepeat="None" />
    <mask fill="white" id="Clip39">
      <path d="M 5.544629349470499 11.300223214285715  L 5.552193645990923 8.814174107142858  L 6.671709531013615 10.053013392857142  L 5.544629349470499 11.300223214285715  Z M 5.552193645990923 6.185825892857143  L 5.544629349470499 3.6997767857142856  L 6.671709531013615 4.946986607142857  L 5.552193645990923 6.185825892857143  Z M 4.561270801815431 8.830915178571429  L 4.561270801815431 13.9453125  L 8.071104387291982 10.061383928571429  L 5.7564296520423595 7.5  L 8.071104387291982 4.938616071428571  L 4.561270801815431 1.0546875  L 4.561270801815431 6.169084821428571  L 2.632375189107413 4.034598214285714  L 1.9288956127080181 4.813058035714286  L 4.34947049924357 7.5  L 1.9288956127080181 10.186941964285715  L 2.632375189107413 10.965401785714285  L 4.561270801815431 8.830915178571429  Z M 9.757942511346444 4.440569196428571  C 9.919314170448816 5.3138950892857135  10 6.333705357142856  10 7.5  C 10 8.666294642857142  9.919314170448816 9.686104910714285  9.757942511346444 10.559430803571429  C 9.596570852244074 11.43275669642857  9.375945537065052 12.149832589285715  9.09606656580938 12.710658482142858  C 8.816187594553707 13.271484375  8.461926374180536 13.724888392857142  8.033282904689864 14.070870535714285  C 7.604639435199195 14.416852678571429  7.146999495713566 14.658203125000002  6.66036308623298 14.794921875  C 6.173726676752396 14.931640624999998  5.620272314674736 15  5 15  C 4.379727685325265 15  3.8262733232476047 14.931640624999998  3.3396369137670194 14.794921875  C 2.8530005042864346 14.658203125000002  2.395360564800807 14.416852678571429  1.9667170953101363 14.070870535714285  C 1.5380736258194658 13.724888392857142  1.1838124054462935 13.271484375  0.9039334341906202 12.710658482142858  C 0.624054462934947 12.149832589285715  0.4034291477559254 11.43275669642857  0.24205748865355523 10.559430803571429  C 0.08068582955118511 9.686104910714285  0 8.666294642857142  0 7.5  C 0 6.333705357142856  0.08068582955118511 5.3138950892857135  0.24205748865355523 4.440569196428571  C 0.4034291477559254 3.567243303571427  0.624054462934947 2.8501674107142856  0.9039334341906202 2.2893415178571437  C 1.1838124054462935 1.728515625  1.5380736258194658 1.275111607142857  1.9667170953101363 0.9291294642857145  C 2.395360564800807 0.5831473214285704  2.8530005042864346 0.3417968749999989  3.3396369137670194 0.205078125  C 3.8262733232476047 0.06835937500000111  4.379727685325265 0  5 0  C 5.620272314674736 0  6.173726676752396 0.06835937500000111  6.66036308623298 0.205078125  C 7.146999495713566 0.3417968749999989  7.604639435199195 0.5831473214285704  8.033282904689864 0.9291294642857145  C 8.461926374180536 1.275111607142857  8.816187594553707 1.728515625  9.09606656580938 2.2893415178571437  C 9.375945537065052 2.8501674107142856  9.596570852244074 3.567243303571427  9.757942511346444 4.440569196428571  Z " fill-rule="evenodd" />
    </mask>
  </defs>
  <g transform="matrix(1 0 0 1 -290 -4 )">
    <path d="M 5.544629349470499 11.300223214285715  L 5.552193645990923 8.814174107142858  L 6.671709531013615 10.053013392857142  L 5.544629349470499 11.300223214285715  Z M 5.552193645990923 6.185825892857143  L 5.544629349470499 3.6997767857142856  L 6.671709531013615 4.946986607142857  L 5.552193645990923 6.185825892857143  Z M 4.561270801815431 8.830915178571429  L 4.561270801815431 13.9453125  L 8.071104387291982 10.061383928571429  L 5.7564296520423595 7.5  L 8.071104387291982 4.938616071428571  L 4.561270801815431 1.0546875  L 4.561270801815431 6.169084821428571  L 2.632375189107413 4.034598214285714  L 1.9288956127080181 4.813058035714286  L 4.34947049924357 7.5  L 1.9288956127080181 10.186941964285715  L 2.632375189107413 10.965401785714285  L 4.561270801815431 8.830915178571429  Z M 9.757942511346444 4.440569196428571  C 9.919314170448816 5.3138950892857135  10 6.333705357142856  10 7.5  C 10 8.666294642857142  9.919314170448816 9.686104910714285  9.757942511346444 10.559430803571429  C 9.596570852244074 11.43275669642857  9.375945537065052 12.149832589285715  9.09606656580938 12.710658482142858  C 8.816187594553707 13.271484375  8.461926374180536 13.724888392857142  8.033282904689864 14.070870535714285  C 7.604639435199195 14.416852678571429  7.146999495713566 14.658203125000002  6.66036308623298 14.794921875  C 6.173726676752396 14.931640624999998  5.620272314674736 15  5 15  C 4.379727685325265 15  3.8262733232476047 14.931640624999998  3.3396369137670194 14.794921875  C 2.8530005042864346 14.658203125000002  2.395360564800807 14.416852678571429  1.9667170953101363 14.070870535714285  C 1.5380736258194658 13.724888392857142  1.1838124054462935 13.271484375  0.9039334341906202 12.710658482142858  C 0.624054462934947 12.149832589285715  0.4034291477559254 11.43275669642857  0.24205748865355523 10.559430803571429  C 0.08068582955118511 9.686104910714285  0 8.666294642857142  0 7.5  C 0 6.333705357142856  0.08068582955118511 5.3138950892857135  0.24205748865355523 4.440569196428571  C 0.4034291477559254 3.567243303571427  0.624054462934947 2.8501674107142856  0.9039334341906202 2.2893415178571437  C 1.1838124054462935 1.728515625  1.5380736258194658 1.275111607142857  1.9667170953101363 0.9291294642857145  C 2.395360564800807 0.5831473214285704  2.8530005042864346 0.3417968749999989  3.3396369137670194 0.205078125  C 3.8262733232476047 0.06835937500000111  4.379727685325265 0  5 0  C 5.620272314674736 0  6.173726676752396 0.06835937500000111  6.66036308623298 0.205078125  C 7.146999495713566 0.3417968749999989  7.604639435199195 0.5831473214285704  8.033282904689864 0.9291294642857145  C 8.461926374180536 1.275111607142857  8.816187594553707 1.728515625  9.09606656580938 2.2893415178571437  C 9.375945537065052 2.8501674107142856  9.596570852244074 3.567243303571427  9.757942511346444 4.440569196428571  Z " fill-rule="nonzero" fill="rgba(0, 0, 0, 1)" stroke="none" transform="matrix(1 0 0 1 290 4 )" class="fill" />
    <path d="M 5.544629349470499 11.300223214285715  L 5.552193645990923 8.814174107142858  L 6.671709531013615 10.053013392857142  L 5.544629349470499 11.300223214285715  Z " stroke-width="0" stroke-dasharray="0" stroke="rgba(255, 255, 255, 0)" fill="none" transform="matrix(1 0 0 1 290 4 )" class="stroke" mask="url(#Clip39)" />
    <path d="M 5.552193645990923 6.185825892857143  L 5.544629349470499 3.6997767857142856  L 6.671709531013615 4.946986607142857  L 5.552193645990923 6.185825892857143  Z " stroke-width="0" stroke-dasharray="0" stroke="rgba(255, 255, 255, 0)" fill="none" transform="matrix(1 0 0 1 290 4 )" class="stroke" mask="url(#Clip39)" />
    <path d="M 4.561270801815431 8.830915178571429  L 4.561270801815431 13.9453125  L 8.071104387291982 10.061383928571429  L 5.7564296520423595 7.5  L 8.071104387291982 4.938616071428571  L 4.561270801815431 1.0546875  L 4.561270801815431 6.169084821428571  L 2.632375189107413 4.034598214285714  L 1.9288956127080181 4.813058035714286  L 4.34947049924357 7.5  L 1.9288956127080181 10.186941964285715  L 2.632375189107413 10.965401785714285  L 4.561270801815431 8.830915178571429  Z " stroke-width="0" stroke-dasharray="0" stroke="rgba(255, 255, 255, 0)" fill="none" transform="matrix(1 0 0 1 290 4 )" class="stroke" mask="url(#Clip39)" />
    <path d="M 9.757942511346444 4.440569196428571  C 9.919314170448816 5.3138950892857135  10 6.333705357142856  10 7.5  C 10 8.666294642857142  9.919314170448816 9.686104910714285  9.757942511346444 10.559430803571429  C 9.596570852244074 11.43275669642857  9.375945537065052 12.149832589285715  9.09606656580938 12.710658482142858  C 8.816187594553707 13.271484375  8.461926374180536 13.724888392857142  8.033282904689864 14.070870535714285  C 7.604639435199195 14.416852678571429  7.146999495713566 14.658203125000002  6.66036308623298 14.794921875  C 6.173726676752396 14.931640624999998  5.620272314674736 15  5 15  C 4.379727685325265 15  3.8262733232476047 14.931640624999998  3.3396369137670194 14.794921875  C 2.8530005042864346 14.658203125000002  2.395360564800807 14.416852678571429  1.9667170953101363 14.070870535714285  C 1.5380736258194658 13.724888392857142  1.1838124054462935 13.271484375  0.9039334341906202 12.710658482142858  C 0.624054462934947 12.149832589285715  0.4034291477559254 11.43275669642857  0.24205748865355523 10.559430803571429  C 0.08068582955118511 9.686104910714285  0 8.666294642857142  0 7.5  C 0 6.333705357142856  0.08068582955118511 5.3138950892857135  0.24205748865355523 4.440569196428571  C 0.4034291477559254 3.567243303571427  0.624054462934947 2.8501674107142856  0.9039334341906202 2.2893415178571437  C 1.1838124054462935 1.728515625  1.5380736258194658 1.275111607142857  1.9667170953101363 0.9291294642857145  C 2.395360564800807 0.5831473214285704  2.8530005042864346 0.3417968749999989  3.3396369137670194 0.205078125  C 3.8262733232476047 0.06835937500000111  4.379727685325265 0  5 0  C 5.620272314674736 0  6.173726676752396 0.06835937500000111  6.66036308623298 0.205078125  C 7.146999495713566 0.3417968749999989  7.604639435199195 0.5831473214285704  8.033282904689864 0.9291294642857145  C 8.461926374180536 1.275111607142857  8.816187594553707 1.728515625  9.09606656580938 2.2893415178571437  C 9.375945537065052 2.8501674107142856  9.596570852244074 3.567243303571427  9.757942511346444 4.440569196428571  Z " stroke-width="0" stroke-dasharray="0" stroke="rgba(255, 255, 255, 0)" fill="none" transform="matrix(1 0 0 1 290 4 )" class="stroke" mask="url(#Clip39)" />
  </g>
</svg>