<?xml version="1.0" encoding="utf-8"?>
<svg version="1.1" xmlns:xlink="http://www.w3.org/1999/xlink" width="20px" height="20px" xmlns="http://www.w3.org/2000/svg">
  <defs>
    <pattern id="BGPattern" patternUnits="userSpaceOnUse" alignment="0 0" imageRepeat="None" />
    <mask fill="white" id="Clip35">
      <path d="M 19.752604166666668 16.296875  C 19.91753472222222 16.494791666666668  20 16.729166666666668  20 17  L 20 19  C 20 19.270833333333332  19.91753472222222 19.505208333333332  19.752604166666668 19.703125  C 19.587673611111114 19.901041666666668  19.392361111111114 20  19.166666666666668 20  L 0.8333333333333333 20  C 0.607638888888889 20  0.4123263888888889 19.901041666666668  0.24739583333333331 19.703125  C 0.08246527777777778 19.505208333333332  0 19.270833333333332  0 19  L 0 17  C 0 16.729166666666668  0.08246527777777778 16.494791666666668  0.24739583333333331 16.296875  C 0.4123263888888889 16.098958333333332  0.607638888888889 16  0.8333333333333333 16  L 19.166666666666668 16  C 19.392361111111114 16  19.587673611111114 16.098958333333332  19.752604166666668 16.296875  Z M 19.752604166666668 8.296875  C 19.91753472222222 8.494791666666666  20 8.729166666666666  20 9  L 20 11  C 20 11.270833333333332  19.91753472222222 11.505208333333332  19.752604166666668 11.703125  C 19.587673611111114 11.901041666666664  19.392361111111114 12  19.166666666666668 12  L 0.8333333333333333 12  C 0.607638888888889 12  0.4123263888888889 11.901041666666664  0.24739583333333331 11.703125  C 0.08246527777777778 11.505208333333332  0 11.270833333333332  0 11  L 0 9  C 0 8.729166666666666  0.08246527777777778 8.494791666666666  0.24739583333333331 8.296875  C 0.4123263888888889 8.098958333333336  0.607638888888889 8  0.8333333333333333 8  L 19.166666666666668 8  C 19.392361111111114 8  19.587673611111114 8.098958333333336  19.752604166666668 8.296875  Z M 19.752604166666668 0.2968750000000009  C 19.91753472222222 0.4947916666666652  20 0.7291666666666652  20 1.0000000000000009  L 20 3.0000000000000004  C 20 3.2708333333333317  19.91753472222222 3.5052083333333317  19.752604166666668 3.7031250000000004  C 19.587673611111114 3.9010416666666647  19.392361111111114 3.999999999999999  19.166666666666668 4  L 0.8333333333333333 4  C 0.607638888888889 3.999999999999999  0.4123263888888889 3.9010416666666647  0.24739583333333331 3.7031250000000004  C 0.08246527777777778 3.5052083333333317  0 3.2708333333333317  0 3.0000000000000004  L 0 1.0000000000000009  C 0 0.7291666666666652  0.08246527777777778 0.4947916666666652  0.24739583333333331 0.2968750000000009  C 0.4123263888888889 0.09895833333333215  0.607638888888889 0  0.8333333333333333 0  L 19.166666666666668 0  C 19.392361111111114 0  19.587673611111114 0.09895833333333215  19.752604166666668 0.2968750000000009  Z " fill-rule="evenodd" />
    </mask>
  </defs>
  <g transform="matrix(1 0 0 1 -17 -40 )">
    <path d="M 19.752604166666668 16.296875  C 19.91753472222222 16.494791666666668  20 16.729166666666668  20 17  L 20 19  C 20 19.270833333333332  19.91753472222222 19.505208333333332  19.752604166666668 19.703125  C 19.587673611111114 19.901041666666668  19.392361111111114 20  19.166666666666668 20  L 0.8333333333333333 20  C 0.607638888888889 20  0.4123263888888889 19.901041666666668  0.24739583333333331 19.703125  C 0.08246527777777778 19.505208333333332  0 19.270833333333332  0 19  L 0 17  C 0 16.729166666666668  0.08246527777777778 16.494791666666668  0.24739583333333331 16.296875  C 0.4123263888888889 16.098958333333332  0.607638888888889 16  0.8333333333333333 16  L 19.166666666666668 16  C 19.392361111111114 16  19.587673611111114 16.098958333333332  19.752604166666668 16.296875  Z M 19.752604166666668 8.296875  C 19.91753472222222 8.494791666666666  20 8.729166666666666  20 9  L 20 11  C 20 11.270833333333332  19.91753472222222 11.505208333333332  19.752604166666668 11.703125  C 19.587673611111114 11.901041666666664  19.392361111111114 12  19.166666666666668 12  L 0.8333333333333333 12  C 0.607638888888889 12  0.4123263888888889 11.901041666666664  0.24739583333333331 11.703125  C 0.08246527777777778 11.505208333333332  0 11.270833333333332  0 11  L 0 9  C 0 8.729166666666666  0.08246527777777778 8.494791666666666  0.24739583333333331 8.296875  C 0.4123263888888889 8.098958333333336  0.607638888888889 8  0.8333333333333333 8  L 19.166666666666668 8  C 19.392361111111114 8  19.587673611111114 8.098958333333336  19.752604166666668 8.296875  Z M 19.752604166666668 0.2968750000000009  C 19.91753472222222 0.4947916666666652  20 0.7291666666666652  20 1.0000000000000009  L 20 3.0000000000000004  C 20 3.2708333333333317  19.91753472222222 3.5052083333333317  19.752604166666668 3.7031250000000004  C 19.587673611111114 3.9010416666666647  19.392361111111114 3.999999999999999  19.166666666666668 4  L 0.8333333333333333 4  C 0.607638888888889 3.999999999999999  0.4123263888888889 3.9010416666666647  0.24739583333333331 3.7031250000000004  C 0.08246527777777778 3.5052083333333317  0 3.2708333333333317  0 3.0000000000000004  L 0 1.0000000000000009  C 0 0.7291666666666652  0.08246527777777778 0.4947916666666652  0.24739583333333331 0.2968750000000009  C 0.4123263888888889 0.09895833333333215  0.607638888888889 0  0.8333333333333333 0  L 19.166666666666668 0  C 19.392361111111114 0  19.587673611111114 0.09895833333333215  19.752604166666668 0.2968750000000009  Z " fill-rule="nonzero" fill="rgba(0, 0, 0, 1)" stroke="none" transform="matrix(1 0 0 1 17 40 )" class="fill" />
    <path d="M 19.752604166666668 16.296875  C 19.91753472222222 16.494791666666668  20 16.729166666666668  20 17  L 20 19  C 20 19.270833333333332  19.91753472222222 19.505208333333332  19.752604166666668 19.703125  C 19.587673611111114 19.901041666666668  19.392361111111114 20  19.166666666666668 20  L 0.8333333333333333 20  C 0.607638888888889 20  0.4123263888888889 19.901041666666668  0.24739583333333331 19.703125  C 0.08246527777777778 19.505208333333332  0 19.270833333333332  0 19  L 0 17  C 0 16.729166666666668  0.08246527777777778 16.494791666666668  0.24739583333333331 16.296875  C 0.4123263888888889 16.098958333333332  0.607638888888889 16  0.8333333333333333 16  L 19.166666666666668 16  C 19.392361111111114 16  19.587673611111114 16.098958333333332  19.752604166666668 16.296875  Z " stroke-width="0" stroke-dasharray="0" stroke="rgba(255, 255, 255, 0)" fill="none" transform="matrix(1 0 0 1 17 40 )" class="stroke" mask="url(#Clip35)" />
    <path d="M 19.752604166666668 8.296875  C 19.91753472222222 8.494791666666666  20 8.729166666666666  20 9  L 20 11  C 20 11.270833333333332  19.91753472222222 11.505208333333332  19.752604166666668 11.703125  C 19.587673611111114 11.901041666666664  19.392361111111114 12  19.166666666666668 12  L 0.8333333333333333 12  C 0.607638888888889 12  0.4123263888888889 11.901041666666664  0.24739583333333331 11.703125  C 0.08246527777777778 11.505208333333332  0 11.270833333333332  0 11  L 0 9  C 0 8.729166666666666  0.08246527777777778 8.494791666666666  0.24739583333333331 8.296875  C 0.4123263888888889 8.098958333333336  0.607638888888889 8  0.8333333333333333 8  L 19.166666666666668 8  C 19.392361111111114 8  19.587673611111114 8.098958333333336  19.752604166666668 8.296875  Z " stroke-width="0" stroke-dasharray="0" stroke="rgba(255, 255, 255, 0)" fill="none" transform="matrix(1 0 0 1 17 40 )" class="stroke" mask="url(#Clip35)" />
    <path d="M 19.752604166666668 0.2968750000000009  C 19.91753472222222 0.4947916666666652  20 0.7291666666666652  20 1.0000000000000009  L 20 3.0000000000000004  C 20 3.2708333333333317  19.91753472222222 3.5052083333333317  19.752604166666668 3.7031250000000004  C 19.587673611111114 3.9010416666666647  19.392361111111114 3.999999999999999  19.166666666666668 4  L 0.8333333333333333 4  C 0.607638888888889 3.999999999999999  0.4123263888888889 3.9010416666666647  0.24739583333333331 3.7031250000000004  C 0.08246527777777778 3.5052083333333317  0 3.2708333333333317  0 3.0000000000000004  L 0 1.0000000000000009  C 0 0.7291666666666652  0.08246527777777778 0.4947916666666652  0.24739583333333331 0.2968750000000009  C 0.4123263888888889 0.09895833333333215  0.607638888888889 0  0.8333333333333333 0  L 19.166666666666668 0  C 19.392361111111114 0  19.587673611111114 0.09895833333333215  19.752604166666668 0.2968750000000009  Z " stroke-width="0" stroke-dasharray="0" stroke="rgba(255, 255, 255, 0)" fill="none" transform="matrix(1 0 0 1 17 40 )" class="stroke" mask="url(#Clip35)" />
  </g>
</svg>