<?xml version="1.0" encoding="utf-8"?>
<svg version="1.1" xmlns:xlink="http://www.w3.org/1999/xlink" width="15px" height="15px" xmlns="http://www.w3.org/2000/svg">
  <defs>
    <pattern id="BGPattern" patternUnits="userSpaceOnUse" alignment="0 0" imageRepeat="None" />
    <mask fill="white" id="Clip40">
      <path d="M 2.067522321428571 12.587890625  C 2.117745535714286 12.646484375  2.142857142857143 12.721354166666666  2.142857142857143 12.8125  L 2.142857142857143 14.6875  C 2.142857142857143 14.778645833333332  2.117745535714286 14.853515625  2.067522321428571 14.912109375  C 2.017299107142857 14.970703125  1.9531250000000002 15  1.875 15  L 0.26785714285714285 15  C 0.18973214285714285 15  0.12555803571428573 14.970703125  0.07533482142857144 14.912109375  C 0.02511160714285714 14.853515625  0 14.778645833333332  0 14.6875  L 0 12.8125  C 0 12.721354166666666  0.02511160714285714 12.646484375  0.07533482142857144 12.587890625  C 0.12555803571428573 12.529296875  0.18973214285714285 12.5  0.26785714285714285 12.5  L 1.875 12.5  C 1.9531250000000002 12.5  2.017299107142857 12.529296875  2.067522321428571 12.587890625  Z M 5.281808035714286 11.337890625  C 5.33203125 11.396484375  5.357142857142858 11.471354166666668  5.357142857142858 11.5625  L 5.357142857142858 14.6875  C 5.357142857142858 14.778645833333332  5.33203125 14.853515625  5.281808035714286 14.912109375  C 5.231584821428572 14.970703125  5.167410714285714 15  5.089285714285714 15  L 3.482142857142857 15  C 3.404017857142858 15  3.3398437500000004 14.970703125  3.289620535714286 14.912109375  C 3.239397321428571 14.853515625  3.214285714285714 14.778645833333332  3.214285714285714 14.6875  L 3.214285714285714 11.5625  C 3.214285714285714 11.471354166666668  3.239397321428571 11.396484375  3.289620535714286 11.337890625  C 3.3398437500000004 11.279296875  3.404017857142858 11.25  3.482142857142857 11.25  L 5.089285714285714 11.25  C 5.167410714285714 11.25  5.231584821428572 11.279296875  5.281808035714286 11.337890625  Z M 8.49609375 8.837890624999998  C 8.546316964285715 8.896484374999998  8.571428571428571 8.971354166666664  8.571428571428571 9.062500000000002  L 8.571428571428571 14.6875  C 8.571428571428571 14.778645833333332  8.546316964285715 14.853515625  8.49609375 14.912109375  C 8.445870535714285 14.970703125  8.381696428571429 15  8.303571428571429 15  L 6.696428571428572 15  C 6.618303571428572 15  6.554129464285715 14.970703125  6.50390625 14.912109375  C 6.453683035714286 14.853515625  6.428571428571428 14.778645833333332  6.428571428571428 14.6875  L 6.428571428571428 9.062500000000002  C 6.428571428571428 8.971354166666664  6.453683035714286 8.896484374999998  6.50390625 8.837890624999998  C 6.554129464285715 8.779296874999998  6.618303571428572 8.749999999999998  6.696428571428572 8.749999999999998  L 8.303571428571429 8.749999999999998  C 8.381696428571429 8.749999999999998  8.445870535714285 8.779296874999998  8.49609375 8.837890624999998  Z M 11.710379464285715 5.087890625000001  C 11.760602678571429 5.146484375000001  11.785714285714285 5.221354166666667  11.785714285714285 5.312499999999999  L 11.785714285714285 14.6875  C 11.785714285714285 14.778645833333332  11.760602678571429 14.853515625  11.710379464285715 14.912109375  C 11.66015625 14.970703125  11.595982142857144 15  11.517857142857144 15  L 9.910714285714285 15  C 9.832589285714286 15  9.768415178571429 14.970703125  9.718191964285715 14.912109375  C 9.66796875 14.853515625  9.642857142857144 14.778645833333332  9.642857142857144 14.6875  L 9.642857142857144 5.312499999999999  C 9.642857142857144 5.221354166666667  9.66796875 5.146484375000001  9.718191964285715 5.087890625000001  C 9.768415178571429 5.029296875000001  9.832589285714286 5.000000000000001  9.910714285714285 5.000000000000001  L 11.517857142857144 5.000000000000001  C 11.595982142857144 5.000000000000001  11.66015625 5.029296875000001  11.710379464285715 5.087890625000001  Z M 14.924665178571429 0.087890625  C 14.974888392857144 0.146484375  15 0.22135416666666463  15 0.31250000000000056  L 15 14.6875  C 15 14.778645833333332  14.974888392857144 14.853515625  14.924665178571429 14.912109375  C 14.874441964285715 14.970703125  14.81026785714286 15  14.732142857142856 15  L 13.125 15  C 13.046875000000004 15  12.982700892857146 14.970703125  12.932477678571429 14.912109375  C 12.882254464285715 14.853515625  12.857142857142856 14.778645833333332  12.857142857142856 14.6875  L 12.857142857142856 0.31250000000000056  C 12.857142857142856 0.22135416666666463  12.882254464285715 0.146484375  12.932477678571429 0.087890625  C 12.982700892857146 0.029296875  13.046875000000004 0  13.125 0  L 14.732142857142856 0  C 14.81026785714286 0  14.874441964285715 0.029296875  14.924665178571429 0.087890625  Z " fill-rule="evenodd" />
    </mask>
  </defs>
  <g transform="matrix(1 0 0 1 -305 -4 )">
    <path d="M 2.067522321428571 12.587890625  C 2.117745535714286 12.646484375  2.142857142857143 12.721354166666666  2.142857142857143 12.8125  L 2.142857142857143 14.6875  C 2.142857142857143 14.778645833333332  2.117745535714286 14.853515625  2.067522321428571 14.912109375  C 2.017299107142857 14.970703125  1.9531250000000002 15  1.875 15  L 0.26785714285714285 15  C 0.18973214285714285 15  0.12555803571428573 14.970703125  0.07533482142857144 14.912109375  C 0.02511160714285714 14.853515625  0 14.778645833333332  0 14.6875  L 0 12.8125  C 0 12.721354166666666  0.02511160714285714 12.646484375  0.07533482142857144 12.587890625  C 0.12555803571428573 12.529296875  0.18973214285714285 12.5  0.26785714285714285 12.5  L 1.875 12.5  C 1.9531250000000002 12.5  2.017299107142857 12.529296875  2.067522321428571 12.587890625  Z M 5.281808035714286 11.337890625  C 5.33203125 11.396484375  5.357142857142858 11.471354166666668  5.357142857142858 11.5625  L 5.357142857142858 14.6875  C 5.357142857142858 14.778645833333332  5.33203125 14.853515625  5.281808035714286 14.912109375  C 5.231584821428572 14.970703125  5.167410714285714 15  5.089285714285714 15  L 3.482142857142857 15  C 3.404017857142858 15  3.3398437500000004 14.970703125  3.289620535714286 14.912109375  C 3.239397321428571 14.853515625  3.214285714285714 14.778645833333332  3.214285714285714 14.6875  L 3.214285714285714 11.5625  C 3.214285714285714 11.471354166666668  3.239397321428571 11.396484375  3.289620535714286 11.337890625  C 3.3398437500000004 11.279296875  3.404017857142858 11.25  3.482142857142857 11.25  L 5.089285714285714 11.25  C 5.167410714285714 11.25  5.231584821428572 11.279296875  5.281808035714286 11.337890625  Z M 8.49609375 8.837890624999998  C 8.546316964285715 8.896484374999998  8.571428571428571 8.971354166666664  8.571428571428571 9.062500000000002  L 8.571428571428571 14.6875  C 8.571428571428571 14.778645833333332  8.546316964285715 14.853515625  8.49609375 14.912109375  C 8.445870535714285 14.970703125  8.381696428571429 15  8.303571428571429 15  L 6.696428571428572 15  C 6.618303571428572 15  6.554129464285715 14.970703125  6.50390625 14.912109375  C 6.453683035714286 14.853515625  6.428571428571428 14.778645833333332  6.428571428571428 14.6875  L 6.428571428571428 9.062500000000002  C 6.428571428571428 8.971354166666664  6.453683035714286 8.896484374999998  6.50390625 8.837890624999998  C 6.554129464285715 8.779296874999998  6.618303571428572 8.749999999999998  6.696428571428572 8.749999999999998  L 8.303571428571429 8.749999999999998  C 8.381696428571429 8.749999999999998  8.445870535714285 8.779296874999998  8.49609375 8.837890624999998  Z M 11.710379464285715 5.087890625000001  C 11.760602678571429 5.146484375000001  11.785714285714285 5.221354166666667  11.785714285714285 5.312499999999999  L 11.785714285714285 14.6875  C 11.785714285714285 14.778645833333332  11.760602678571429 14.853515625  11.710379464285715 14.912109375  C 11.66015625 14.970703125  11.595982142857144 15  11.517857142857144 15  L 9.910714285714285 15  C 9.832589285714286 15  9.768415178571429 14.970703125  9.718191964285715 14.912109375  C 9.66796875 14.853515625  9.642857142857144 14.778645833333332  9.642857142857144 14.6875  L 9.642857142857144 5.312499999999999  C 9.642857142857144 5.221354166666667  9.66796875 5.146484375000001  9.718191964285715 5.087890625000001  C 9.768415178571429 5.029296875000001  9.832589285714286 5.000000000000001  9.910714285714285 5.000000000000001  L 11.517857142857144 5.000000000000001  C 11.595982142857144 5.000000000000001  11.66015625 5.029296875000001  11.710379464285715 5.087890625000001  Z M 14.924665178571429 0.087890625  C 14.974888392857144 0.146484375  15 0.22135416666666463  15 0.31250000000000056  L 15 14.6875  C 15 14.778645833333332  14.974888392857144 14.853515625  14.924665178571429 14.912109375  C 14.874441964285715 14.970703125  14.81026785714286 15  14.732142857142856 15  L 13.125 15  C 13.046875000000004 15  12.982700892857146 14.970703125  12.932477678571429 14.912109375  C 12.882254464285715 14.853515625  12.857142857142856 14.778645833333332  12.857142857142856 14.6875  L 12.857142857142856 0.31250000000000056  C 12.857142857142856 0.22135416666666463  12.882254464285715 0.146484375  12.932477678571429 0.087890625  C 12.982700892857146 0.029296875  13.046875000000004 0  13.125 0  L 14.732142857142856 0  C 14.81026785714286 0  14.874441964285715 0.029296875  14.924665178571429 0.087890625  Z " fill-rule="nonzero" fill="rgba(0, 0, 0, 1)" stroke="none" transform="matrix(1 0 0 1 305 4 )" class="fill" />
    <path d="M 2.067522321428571 12.587890625  C 2.117745535714286 12.646484375  2.142857142857143 12.721354166666666  2.142857142857143 12.8125  L 2.142857142857143 14.6875  C 2.142857142857143 14.778645833333332  2.117745535714286 14.853515625  2.067522321428571 14.912109375  C 2.017299107142857 14.970703125  1.9531250000000002 15  1.875 15  L 0.26785714285714285 15  C 0.18973214285714285 15  0.12555803571428573 14.970703125  0.07533482142857144 14.912109375  C 0.02511160714285714 14.853515625  0 14.778645833333332  0 14.6875  L 0 12.8125  C 0 12.721354166666666  0.02511160714285714 12.646484375  0.07533482142857144 12.587890625  C 0.12555803571428573 12.529296875  0.18973214285714285 12.5  0.26785714285714285 12.5  L 1.875 12.5  C 1.9531250000000002 12.5  2.017299107142857 12.529296875  2.067522321428571 12.587890625  Z " stroke-width="0" stroke-dasharray="0" stroke="rgba(255, 255, 255, 0)" fill="none" transform="matrix(1 0 0 1 305 4 )" class="stroke" mask="url(#Clip40)" />
    <path d="M 5.281808035714286 11.337890625  C 5.33203125 11.396484375  5.357142857142858 11.471354166666668  5.357142857142858 11.5625  L 5.357142857142858 14.6875  C 5.357142857142858 14.778645833333332  5.33203125 14.853515625  5.281808035714286 14.912109375  C 5.231584821428572 14.970703125  5.167410714285714 15  5.089285714285714 15  L 3.482142857142857 15  C 3.404017857142858 15  3.3398437500000004 14.970703125  3.289620535714286 14.912109375  C 3.239397321428571 14.853515625  3.214285714285714 14.778645833333332  3.214285714285714 14.6875  L 3.214285714285714 11.5625  C 3.214285714285714 11.471354166666668  3.239397321428571 11.396484375  3.289620535714286 11.337890625  C 3.3398437500000004 11.279296875  3.404017857142858 11.25  3.482142857142857 11.25  L 5.089285714285714 11.25  C 5.167410714285714 11.25  5.231584821428572 11.279296875  5.281808035714286 11.337890625  Z " stroke-width="0" stroke-dasharray="0" stroke="rgba(255, 255, 255, 0)" fill="none" transform="matrix(1 0 0 1 305 4 )" class="stroke" mask="url(#Clip40)" />
    <path d="M 8.49609375 8.837890624999998  C 8.546316964285715 8.896484374999998  8.571428571428571 8.971354166666664  8.571428571428571 9.062500000000002  L 8.571428571428571 14.6875  C 8.571428571428571 14.778645833333332  8.546316964285715 14.853515625  8.49609375 14.912109375  C 8.445870535714285 14.970703125  8.381696428571429 15  8.303571428571429 15  L 6.696428571428572 15  C 6.618303571428572 15  6.554129464285715 14.970703125  6.50390625 14.912109375  C 6.453683035714286 14.853515625  6.428571428571428 14.778645833333332  6.428571428571428 14.6875  L 6.428571428571428 9.062500000000002  C 6.428571428571428 8.971354166666664  6.453683035714286 8.896484374999998  6.50390625 8.837890624999998  C 6.554129464285715 8.779296874999998  6.618303571428572 8.749999999999998  6.696428571428572 8.749999999999998  L 8.303571428571429 8.749999999999998  C 8.381696428571429 8.749999999999998  8.445870535714285 8.779296874999998  8.49609375 8.837890624999998  Z " stroke-width="0" stroke-dasharray="0" stroke="rgba(255, 255, 255, 0)" fill="none" transform="matrix(1 0 0 1 305 4 )" class="stroke" mask="url(#Clip40)" />
    <path d="M 11.710379464285715 5.087890625000001  C 11.760602678571429 5.146484375000001  11.785714285714285 5.221354166666667  11.785714285714285 5.312499999999999  L 11.785714285714285 14.6875  C 11.785714285714285 14.778645833333332  11.760602678571429 14.853515625  11.710379464285715 14.912109375  C 11.66015625 14.970703125  11.595982142857144 15  11.517857142857144 15  L 9.910714285714285 15  C 9.832589285714286 15  9.768415178571429 14.970703125  9.718191964285715 14.912109375  C 9.66796875 14.853515625  9.642857142857144 14.778645833333332  9.642857142857144 14.6875  L 9.642857142857144 5.312499999999999  C 9.642857142857144 5.221354166666667  9.66796875 5.146484375000001  9.718191964285715 5.087890625000001  C 9.768415178571429 5.029296875000001  9.832589285714286 5.000000000000001  9.910714285714285 5.000000000000001  L 11.517857142857144 5.000000000000001  C 11.595982142857144 5.000000000000001  11.66015625 5.029296875000001  11.710379464285715 5.087890625000001  Z " stroke-width="0" stroke-dasharray="0" stroke="rgba(255, 255, 255, 0)" fill="none" transform="matrix(1 0 0 1 305 4 )" class="stroke" mask="url(#Clip40)" />
    <path d="M 14.924665178571429 0.087890625  C 14.974888392857144 0.146484375  15 0.22135416666666463  15 0.31250000000000056  L 15 14.6875  C 15 14.778645833333332  14.974888392857144 14.853515625  14.924665178571429 14.912109375  C 14.874441964285715 14.970703125  14.81026785714286 15  14.732142857142856 15  L 13.125 15  C 13.046875000000004 15  12.982700892857146 14.970703125  12.932477678571429 14.912109375  C 12.882254464285715 14.853515625  12.857142857142856 14.778645833333332  12.857142857142856 14.6875  L 12.857142857142856 0.31250000000000056  C 12.857142857142856 0.22135416666666463  12.882254464285715 0.146484375  12.932477678571429 0.087890625  C 12.982700892857146 0.029296875  13.046875000000004 0  13.125 0  L 14.732142857142856 0  C 14.81026785714286 0  14.874441964285715 0.029296875  14.924665178571429 0.087890625  Z " stroke-width="0" stroke-dasharray="0" stroke="rgba(255, 255, 255, 0)" fill="none" transform="matrix(1 0 0 1 305 4 )" class="stroke" mask="url(#Clip40)" />
  </g>
</svg>