<?xml version="1.0" encoding="utf-8"?>
<svg version="1.1" xmlns:xlink="http://www.w3.org/1999/xlink" width="20px" height="10px" xmlns="http://www.w3.org/2000/svg">
  <defs>
    <pattern id="BGPattern" patternUnits="userSpaceOnUse" alignment="0 0" imageRepeat="None" />
    <mask fill="white" id="Clip37">
      <path d="M 2.2222222222222223 2  L 16.666666666666668 2  L 16.666666666666668 8  L 2.2222222222222223 8  L 2.2222222222222223 2  Z M 17.77777777777778 8.75  L 17.77777777777778 6.5  L 18.88888888888889 6.5  L 18.88888888888889 3.5  L 17.77777777777778 3.5  L 17.77777777777778 1.25  C 17.77777777777778 1.177083333333332  17.75173611111111 1.1171874999999998  17.69965277777778 1.0703125000000002  C 17.647569444444443 1.0234374999999996  17.58101851851852 0.9999999999999998  17.5 1  L 1.3888888888888888 1  C 1.3078703703703707 0.9999999999999998  1.2413194444444444 1.0234374999999996  1.1892361111111112 1.0703125000000002  C 1.1371527777777777 1.1171874999999998  1.1111111111111112 1.177083333333332  1.1111111111111112 1.25  L 1.1111111111111112 8.75  C 1.1111111111111112 8.822916666666666  1.1371527777777777 8.8828125  1.1892361111111112 8.9296875  C 1.2413194444444444 8.9765625  1.3078703703703707 9  1.3888888888888888 9  L 17.5 9  C 17.58101851851852 9  17.647569444444443 8.9765625  17.69965277777778 8.9296875  C 17.75173611111111 8.8828125  17.77777777777778 8.822916666666666  17.77777777777778 8.75  Z M 19.674479166666668 2.79296875  C 19.891493055555557 2.988281249999999  20 3.223958333333332  20 3.5  L 20 6.5  C 20 6.776041666666666  19.891493055555557 7.01171875  19.674479166666668 7.20703125  C 19.45746527777778 7.40234375  19.195601851851855 7.5  18.88888888888889 7.5  L 18.88888888888889 8.75  C 18.88888888888889 9.09375  18.75289351851852 9.388020833333334  18.48090277777778 9.6328125  C 18.208912037037038 9.877604166666666  17.881944444444443 10  17.5 10  L 1.3888888888888888 10  C 1.0069444444444444 10  0.6799768518518519 9.877604166666666  0.4079861111111111 9.6328125  C 0.13599537037037038 9.388020833333334  0 9.09375  0 8.75  L 0 1.25  C 0 0.9062499999999996  0.13599537037037038 0.6119791666666663  0.4079861111111111 0.3671875000000002  C 0.6799768518518519 0.12239583333333193  1.0069444444444444 0  1.3888888888888888 0  L 17.5 0  C 17.881944444444443 0  18.208912037037038 0.12239583333333193  18.48090277777778 0.3671875000000002  C 18.75289351851852 0.6119791666666663  18.88888888888889 0.9062499999999996  18.88888888888889 1.25  L 18.88888888888889 2.5  C 19.195601851851855 2.499999999999999  19.45746527777778 2.597656249999999  19.674479166666668 2.79296875  Z " fill-rule="evenodd" />
    </mask>
  </defs>
  <g transform="matrix(1 0 0 1 -324 -7 )">
    <path d="M 2.2222222222222223 2  L 16.666666666666668 2  L 16.666666666666668 8  L 2.2222222222222223 8  L 2.2222222222222223 2  Z M 17.77777777777778 8.75  L 17.77777777777778 6.5  L 18.88888888888889 6.5  L 18.88888888888889 3.5  L 17.77777777777778 3.5  L 17.77777777777778 1.25  C 17.77777777777778 1.177083333333332  17.75173611111111 1.1171874999999998  17.69965277777778 1.0703125000000002  C 17.647569444444443 1.0234374999999996  17.58101851851852 0.9999999999999998  17.5 1  L 1.3888888888888888 1  C 1.3078703703703707 0.9999999999999998  1.2413194444444444 1.0234374999999996  1.1892361111111112 1.0703125000000002  C 1.1371527777777777 1.1171874999999998  1.1111111111111112 1.177083333333332  1.1111111111111112 1.25  L 1.1111111111111112 8.75  C 1.1111111111111112 8.822916666666666  1.1371527777777777 8.8828125  1.1892361111111112 8.9296875  C 1.2413194444444444 8.9765625  1.3078703703703707 9  1.3888888888888888 9  L 17.5 9  C 17.58101851851852 9  17.647569444444443 8.9765625  17.69965277777778 8.9296875  C 17.75173611111111 8.8828125  17.77777777777778 8.822916666666666  17.77777777777778 8.75  Z M 19.674479166666668 2.79296875  C 19.891493055555557 2.988281249999999  20 3.223958333333332  20 3.5  L 20 6.5  C 20 6.776041666666666  19.891493055555557 7.01171875  19.674479166666668 7.20703125  C 19.45746527777778 7.40234375  19.195601851851855 7.5  18.88888888888889 7.5  L 18.88888888888889 8.75  C 18.88888888888889 9.09375  18.75289351851852 9.388020833333334  18.48090277777778 9.6328125  C 18.208912037037038 9.877604166666666  17.881944444444443 10  17.5 10  L 1.3888888888888888 10  C 1.0069444444444444 10  0.6799768518518519 9.877604166666666  0.4079861111111111 9.6328125  C 0.13599537037037038 9.388020833333334  0 9.09375  0 8.75  L 0 1.25  C 0 0.9062499999999996  0.13599537037037038 0.6119791666666663  0.4079861111111111 0.3671875000000002  C 0.6799768518518519 0.12239583333333193  1.0069444444444444 0  1.3888888888888888 0  L 17.5 0  C 17.881944444444443 0  18.208912037037038 0.12239583333333193  18.48090277777778 0.3671875000000002  C 18.75289351851852 0.6119791666666663  18.88888888888889 0.9062499999999996  18.88888888888889 1.25  L 18.88888888888889 2.5  C 19.195601851851855 2.499999999999999  19.45746527777778 2.597656249999999  19.674479166666668 2.79296875  Z " fill-rule="nonzero" fill="rgba(0, 0, 0, 1)" stroke="none" transform="matrix(1 0 0 1 324 7 )" class="fill" />
    <path d="M 2.2222222222222223 2  L 16.666666666666668 2  L 16.666666666666668 8  L 2.2222222222222223 8  L 2.2222222222222223 2  Z " stroke-width="0" stroke-dasharray="0" stroke="rgba(255, 255, 255, 0)" fill="none" transform="matrix(1 0 0 1 324 7 )" class="stroke" mask="url(#Clip37)" />
    <path d="M 17.77777777777778 8.75  L 17.77777777777778 6.5  L 18.88888888888889 6.5  L 18.88888888888889 3.5  L 17.77777777777778 3.5  L 17.77777777777778 1.25  C 17.77777777777778 1.177083333333332  17.75173611111111 1.1171874999999998  17.69965277777778 1.0703125000000002  C 17.647569444444443 1.0234374999999996  17.58101851851852 0.9999999999999998  17.5 1  L 1.3888888888888888 1  C 1.3078703703703707 0.9999999999999998  1.2413194444444444 1.0234374999999996  1.1892361111111112 1.0703125000000002  C 1.1371527777777777 1.1171874999999998  1.1111111111111112 1.177083333333332  1.1111111111111112 1.25  L 1.1111111111111112 8.75  C 1.1111111111111112 8.822916666666666  1.1371527777777777 8.8828125  1.1892361111111112 8.9296875  C 1.2413194444444444 8.9765625  1.3078703703703707 9  1.3888888888888888 9  L 17.5 9  C 17.58101851851852 9  17.647569444444443 8.9765625  17.69965277777778 8.9296875  C 17.75173611111111 8.8828125  17.77777777777778 8.822916666666666  17.77777777777778 8.75  Z " stroke-width="0" stroke-dasharray="0" stroke="rgba(255, 255, 255, 0)" fill="none" transform="matrix(1 0 0 1 324 7 )" class="stroke" mask="url(#Clip37)" />
    <path d="M 19.674479166666668 2.79296875  C 19.891493055555557 2.988281249999999  20 3.223958333333332  20 3.5  L 20 6.5  C 20 6.776041666666666  19.891493055555557 7.01171875  19.674479166666668 7.20703125  C 19.45746527777778 7.40234375  19.195601851851855 7.5  18.88888888888889 7.5  L 18.88888888888889 8.75  C 18.88888888888889 9.09375  18.75289351851852 9.388020833333334  18.48090277777778 9.6328125  C 18.208912037037038 9.877604166666666  17.881944444444443 10  17.5 10  L 1.3888888888888888 10  C 1.0069444444444444 10  0.6799768518518519 9.877604166666666  0.4079861111111111 9.6328125  C 0.13599537037037038 9.388020833333334  0 9.09375  0 8.75  L 0 1.25  C 0 0.9062499999999996  0.13599537037037038 0.6119791666666663  0.4079861111111111 0.3671875000000002  C 0.6799768518518519 0.12239583333333193  1.0069444444444444 0  1.3888888888888888 0  L 17.5 0  C 17.881944444444443 0  18.208912037037038 0.12239583333333193  18.48090277777778 0.3671875000000002  C 18.75289351851852 0.6119791666666663  18.88888888888889 0.9062499999999996  18.88888888888889 1.25  L 18.88888888888889 2.5  C 19.195601851851855 2.499999999999999  19.45746527777778 2.597656249999999  19.674479166666668 2.79296875  Z " stroke-width="0" stroke-dasharray="0" stroke="rgba(255, 255, 255, 0)" fill="none" transform="matrix(1 0 0 1 324 7 )" class="stroke" mask="url(#Clip37)" />
  </g>
</svg>