<?xml version="1.0" encoding="utf-8"?>
<svg version="1.1" xmlns:xlink="http://www.w3.org/1999/xlink" width="30px" height="30px" xmlns="http://www.w3.org/2000/svg">
  <defs>
    <pattern id="BGPattern" patternUnits="userSpaceOnUse" alignment="0 0" imageRepeat="None" />
    <mask fill="white" id="Clip45">
      <path d="M 15.736607142857142 29.6484375  C 15.535714285714286 29.8828125  15.290178571428573 30  15 30  C 14.709821428571429 30  14.464285714285715 29.8828125  14.263392857142856 29.6484375  L 3.8169642857142856 17.890625000000004  C 3.7053571428571432 17.786458333333332  3.551897321428572 17.617187499999996  3.356584821428571 17.382812499999996  C 3.1612723214285716 17.148437499999996  2.8515625000000004 16.722005208333336  2.427455357142857 16.103515625000004  C 2.0033482142857144 15.485026041666663  1.6238839285714286 14.850260416666664  1.2890625 14.199218749999998  C 0.9542410714285714 13.548177083333334  0.6556919642857143 12.760416666666666  0.3934151785714286 11.8359375  C 0.13113839285714285 10.91145833333333  0 10.013020833333332  0 9.140625  C 0 6.276041666666665  0.708705357142857 4.036458333333331  2.126116071428571 2.421874999999999  C 3.543526785714286 0.8072916666666663  5.502232142857142 0  8.002232142857144 0  C 8.694196428571429 0  9.400111607142856 0.13997395833333148  10.119977678571429 0.4199218750000011  C 10.83984375 0.6998697916666641  11.509486607142856 1.0774739583333315  12.12890625 1.552734375  C 12.748325892857146 2.027994791666665  13.281250000000004 2.4739583333333304  13.727678571428571 2.890624999999999  C 14.174107142857144 3.3072916666666643  14.598214285714285 3.75  15 4.21875  C 15.401785714285714 3.75  15.82589285714286 3.3072916666666643  16.27232142857143 2.890624999999999  C 16.718750000000004 2.4739583333333304  17.251674107142858 2.027994791666665  17.87109375 1.552734375  C 18.490513392857142 1.0774739583333315  19.16015625 0.6998697916666641  19.88002232142857 0.4199218750000011  C 20.599888392857142 0.13997395833333148  21.305803571428573 0  21.997767857142858 0  C 24.497767857142858 0  26.45647321428572 0.8072916666666663  27.87388392857143 2.421874999999999  C 29.291294642857146 4.036458333333331  30 6.276041666666665  30 9.140625  C 30 12.018229166666664  28.722098214285715 14.947916666666664  26.166294642857142 17.9296875  L 15.736607142857142 29.6484375  Z " fill-rule="evenodd" />
    </mask>
  </defs>
  <g transform="matrix(1 0 0 1 -49 -88 )">
    <path d="M 15.736607142857142 29.6484375  C 15.535714285714286 29.8828125  15.290178571428573 30  15 30  C 14.709821428571429 30  14.464285714285715 29.8828125  14.263392857142856 29.6484375  L 3.8169642857142856 17.890625000000004  C 3.7053571428571432 17.786458333333332  3.551897321428572 17.617187499999996  3.356584821428571 17.382812499999996  C 3.1612723214285716 17.148437499999996  2.8515625000000004 16.722005208333336  2.427455357142857 16.103515625000004  C 2.0033482142857144 15.485026041666663  1.6238839285714286 14.850260416666664  1.2890625 14.199218749999998  C 0.9542410714285714 13.548177083333334  0.6556919642857143 12.760416666666666  0.3934151785714286 11.8359375  C 0.13113839285714285 10.91145833333333  0 10.013020833333332  0 9.140625  C 0 6.276041666666665  0.708705357142857 4.036458333333331  2.126116071428571 2.421874999999999  C 3.543526785714286 0.8072916666666663  5.502232142857142 0  8.002232142857144 0  C 8.694196428571429 0  9.400111607142856 0.13997395833333148  10.119977678571429 0.4199218750000011  C 10.83984375 0.6998697916666641  11.509486607142856 1.0774739583333315  12.12890625 1.552734375  C 12.748325892857146 2.027994791666665  13.281250000000004 2.4739583333333304  13.727678571428571 2.890624999999999  C 14.174107142857144 3.3072916666666643  14.598214285714285 3.75  15 4.21875  C 15.401785714285714 3.75  15.82589285714286 3.3072916666666643  16.27232142857143 2.890624999999999  C 16.718750000000004 2.4739583333333304  17.251674107142858 2.027994791666665  17.87109375 1.552734375  C 18.490513392857142 1.0774739583333315  19.16015625 0.6998697916666641  19.88002232142857 0.4199218750000011  C 20.599888392857142 0.13997395833333148  21.305803571428573 0  21.997767857142858 0  C 24.497767857142858 0  26.45647321428572 0.8072916666666663  27.87388392857143 2.421874999999999  C 29.291294642857146 4.036458333333331  30 6.276041666666665  30 9.140625  C 30 12.018229166666664  28.722098214285715 14.947916666666664  26.166294642857142 17.9296875  L 15.736607142857142 29.6484375  Z " fill-rule="nonzero" fill="rgba(236, 128, 141, 1)" stroke="none" transform="matrix(1 0 0 1 49 88 )" class="fill" />
    <path d="M 15.736607142857142 29.6484375  C 15.535714285714286 29.8828125  15.290178571428573 30  15 30  C 14.709821428571429 30  14.464285714285715 29.8828125  14.263392857142856 29.6484375  L 3.8169642857142856 17.890625000000004  C 3.7053571428571432 17.786458333333332  3.551897321428572 17.617187499999996  3.356584821428571 17.382812499999996  C 3.1612723214285716 17.148437499999996  2.8515625000000004 16.722005208333336  2.427455357142857 16.103515625000004  C 2.0033482142857144 15.485026041666663  1.6238839285714286 14.850260416666664  1.2890625 14.199218749999998  C 0.9542410714285714 13.548177083333334  0.6556919642857143 12.760416666666666  0.3934151785714286 11.8359375  C 0.13113839285714285 10.91145833333333  0 10.013020833333332  0 9.140625  C 0 6.276041666666665  0.708705357142857 4.036458333333331  2.126116071428571 2.421874999999999  C 3.543526785714286 0.8072916666666663  5.502232142857142 0  8.002232142857144 0  C 8.694196428571429 0  9.400111607142856 0.13997395833333148  10.119977678571429 0.4199218750000011  C 10.83984375 0.6998697916666641  11.509486607142856 1.0774739583333315  12.12890625 1.552734375  C 12.748325892857146 2.027994791666665  13.281250000000004 2.4739583333333304  13.727678571428571 2.890624999999999  C 14.174107142857144 3.3072916666666643  14.598214285714285 3.75  15 4.21875  C 15.401785714285714 3.75  15.82589285714286 3.3072916666666643  16.27232142857143 2.890624999999999  C 16.718750000000004 2.4739583333333304  17.251674107142858 2.027994791666665  17.87109375 1.552734375  C 18.490513392857142 1.0774739583333315  19.16015625 0.6998697916666641  19.88002232142857 0.4199218750000011  C 20.599888392857142 0.13997395833333148  21.305803571428573 0  21.997767857142858 0  C 24.497767857142858 0  26.45647321428572 0.8072916666666663  27.87388392857143 2.421874999999999  C 29.291294642857146 4.036458333333331  30 6.276041666666665  30 9.140625  C 30 12.018229166666664  28.722098214285715 14.947916666666664  26.166294642857142 17.9296875  L 15.736607142857142 29.6484375  Z " stroke-width="0" stroke-dasharray="0" stroke="rgba(255, 255, 255, 0)" fill="none" transform="matrix(1 0 0 1 49 88 )" class="stroke" mask="url(#Clip45)" />
  </g>
</svg>