<?xml version="1.0" encoding="utf-8"?>
<svg version="1.1" xmlns:xlink="http://www.w3.org/1999/xlink" width="30px" height="30px" xmlns="http://www.w3.org/2000/svg">
  <defs>
    <pattern id="BGPattern" patternUnits="userSpaceOnUse" alignment="0 0" imageRepeat="None" />
    <mask fill="white" id="Clip46">
      <path d="M 27.99107142857143 6.216655823031879  C 29.330357142857142 8.13597918022121  30 10.227716330513989  30 12.491867273910215  C 30 14.75601821730644  29.330357142857142 16.847755367599216  27.99107142857143 18.76707872478855  C 26.65178571428571 20.686402081977878  24.83258928571429 22.20234222511386  22.533482142857142 23.314899154196485  C 20.234375000000004 24.427456083279115  17.723214285714285 24.98373454782043  15 24.98373454782043  C 14.218750000000002 24.98373454782043  13.409598214285715 24.931685100845804  12.572544642857144 24.82758620689655  C 10.362723214285715 27.104749512036435  7.79575892857143 28.679245283018865  4.871651785714286 29.551073519843854  C 4.3247767857142865 29.733246584255042  3.6886160714285716 29.876382563435264  2.963169642857143 29.980481457384517  C 2.7734375 30.00650618087183  2.603236607142857 29.94795055302538  2.452566964285714 29.804814573845153  C 2.301897321428571 29.661678594664934  2.204241071428572 29.47299934938191  2.159598214285714 29.2387768379961  L 2.159598214285714 29.21925829538061  C 2.1261160714285716 29.167208848405988  2.1233258928571432 29.089134677944052  2.151227678571429 28.985035783994796  C 2.179129464285715 28.880936890045543  2.190290178571429 28.815875081327256  2.184709821428571 28.789850357839946  C 2.179129464285715 28.763825634352635  2.204241071428572 28.702016916070267  2.260044642857143 28.604424202992842  L 2.360491071428571 28.42875731945348  C 2.360491071428571 28.42875731945348  2.3995535714285716 28.373454782042945  2.477678571428571 28.26284970722186  C 2.555803571428572 28.15224463240078  2.600446428571429 28.093689004554324  2.611607142857143 28.087182823682497  C 2.6897321428571432 27.983083929733247  2.862723214285714 27.758620689655174  3.130580357142857 27.413793103448274  C 3.3984375 27.068965517241377  3.590959821428571 26.82173064411191  3.708147321428571 26.672088484059856  C 3.8253348214285716 26.522446324007806  3.9983258928571432 26.26545217957059  4.227120535714286 25.90110605074821  C 4.455915178571429 25.536759921925828  4.637276785714286 25.20494469746259  4.771205357142858 24.90566037735849  C 4.905133928571428 24.606376057254394  5.055803571428572 24.222511385816528  5.223214285714286 23.754066363044895  C 5.390625 23.28562134027326  5.5357142857142865 22.791151594014316  5.658482142857142 22.270657124268055  C 3.9062500000000004 21.112556929082626  2.525111607142857 19.681197137280417  1.5150669642857144 17.976577748861416  C 0.5050223214285714 16.27195836044242  0 14.443721535458685  0 12.491867273910215  C 0 10.800260247234872  0.3962053571428571 9.183474300585559  1.1886160714285714 7.641509433962266  C 1.9810267857142858 6.099544567338974  3.046875 4.769030579050097  4.386160714285714 3.6499674690956407  C 5.725446428571428 2.5309043591411817  7.321428571428572 1.6428106701366252  9.174107142857144 0.9856864020819778  C 11.026785714285715 0.3285621340273237  12.96875 0  15 0  C 17.723214285714285 0  20.234375000000004 0.5562784645413144  22.533482142857142 1.668835393623943  C 24.83258928571429 2.781392322706572  26.65178571428571 4.297332465842546  27.99107142857143 6.216655823031879  Z " fill-rule="evenodd" />
    </mask>
  </defs>
  <g transform="matrix(1 0 0 1 -278 -88 )">
    <path d="M 27.99107142857143 6.216655823031879  C 29.330357142857142 8.13597918022121  30 10.227716330513989  30 12.491867273910215  C 30 14.75601821730644  29.330357142857142 16.847755367599216  27.99107142857143 18.76707872478855  C 26.65178571428571 20.686402081977878  24.83258928571429 22.20234222511386  22.533482142857142 23.314899154196485  C 20.234375000000004 24.427456083279115  17.723214285714285 24.98373454782043  15 24.98373454782043  C 14.218750000000002 24.98373454782043  13.409598214285715 24.931685100845804  12.572544642857144 24.82758620689655  C 10.362723214285715 27.104749512036435  7.79575892857143 28.679245283018865  4.871651785714286 29.551073519843854  C 4.3247767857142865 29.733246584255042  3.6886160714285716 29.876382563435264  2.963169642857143 29.980481457384517  C 2.7734375 30.00650618087183  2.603236607142857 29.94795055302538  2.452566964285714 29.804814573845153  C 2.301897321428571 29.661678594664934  2.204241071428572 29.47299934938191  2.159598214285714 29.2387768379961  L 2.159598214285714 29.21925829538061  C 2.1261160714285716 29.167208848405988  2.1233258928571432 29.089134677944052  2.151227678571429 28.985035783994796  C 2.179129464285715 28.880936890045543  2.190290178571429 28.815875081327256  2.184709821428571 28.789850357839946  C 2.179129464285715 28.763825634352635  2.204241071428572 28.702016916070267  2.260044642857143 28.604424202992842  L 2.360491071428571 28.42875731945348  C 2.360491071428571 28.42875731945348  2.3995535714285716 28.373454782042945  2.477678571428571 28.26284970722186  C 2.555803571428572 28.15224463240078  2.600446428571429 28.093689004554324  2.611607142857143 28.087182823682497  C 2.6897321428571432 27.983083929733247  2.862723214285714 27.758620689655174  3.130580357142857 27.413793103448274  C 3.3984375 27.068965517241377  3.590959821428571 26.82173064411191  3.708147321428571 26.672088484059856  C 3.8253348214285716 26.522446324007806  3.9983258928571432 26.26545217957059  4.227120535714286 25.90110605074821  C 4.455915178571429 25.536759921925828  4.637276785714286 25.20494469746259  4.771205357142858 24.90566037735849  C 4.905133928571428 24.606376057254394  5.055803571428572 24.222511385816528  5.223214285714286 23.754066363044895  C 5.390625 23.28562134027326  5.5357142857142865 22.791151594014316  5.658482142857142 22.270657124268055  C 3.9062500000000004 21.112556929082626  2.525111607142857 19.681197137280417  1.5150669642857144 17.976577748861416  C 0.5050223214285714 16.27195836044242  0 14.443721535458685  0 12.491867273910215  C 0 10.800260247234872  0.3962053571428571 9.183474300585559  1.1886160714285714 7.641509433962266  C 1.9810267857142858 6.099544567338974  3.046875 4.769030579050097  4.386160714285714 3.6499674690956407  C 5.725446428571428 2.5309043591411817  7.321428571428572 1.6428106701366252  9.174107142857144 0.9856864020819778  C 11.026785714285715 0.3285621340273237  12.96875 0  15 0  C 17.723214285714285 0  20.234375000000004 0.5562784645413144  22.533482142857142 1.668835393623943  C 24.83258928571429 2.781392322706572  26.65178571428571 4.297332465842546  27.99107142857143 6.216655823031879  Z " fill-rule="nonzero" fill="rgba(183, 224, 117, 1)" stroke="none" transform="matrix(1 0 0 1 278 88 )" class="fill" />
    <path d="M 27.99107142857143 6.216655823031879  C 29.330357142857142 8.13597918022121  30 10.227716330513989  30 12.491867273910215  C 30 14.75601821730644  29.330357142857142 16.847755367599216  27.99107142857143 18.76707872478855  C 26.65178571428571 20.686402081977878  24.83258928571429 22.20234222511386  22.533482142857142 23.314899154196485  C 20.234375000000004 24.427456083279115  17.723214285714285 24.98373454782043  15 24.98373454782043  C 14.218750000000002 24.98373454782043  13.409598214285715 24.931685100845804  12.572544642857144 24.82758620689655  C 10.362723214285715 27.104749512036435  7.79575892857143 28.679245283018865  4.871651785714286 29.551073519843854  C 4.3247767857142865 29.733246584255042  3.6886160714285716 29.876382563435264  2.963169642857143 29.980481457384517  C 2.7734375 30.00650618087183  2.603236607142857 29.94795055302538  2.452566964285714 29.804814573845153  C 2.301897321428571 29.661678594664934  2.204241071428572 29.47299934938191  2.159598214285714 29.2387768379961  L 2.159598214285714 29.21925829538061  C 2.1261160714285716 29.167208848405988  2.1233258928571432 29.089134677944052  2.151227678571429 28.985035783994796  C 2.179129464285715 28.880936890045543  2.190290178571429 28.815875081327256  2.184709821428571 28.789850357839946  C 2.179129464285715 28.763825634352635  2.204241071428572 28.702016916070267  2.260044642857143 28.604424202992842  L 2.360491071428571 28.42875731945348  C 2.360491071428571 28.42875731945348  2.3995535714285716 28.373454782042945  2.477678571428571 28.26284970722186  C 2.555803571428572 28.15224463240078  2.600446428571429 28.093689004554324  2.611607142857143 28.087182823682497  C 2.6897321428571432 27.983083929733247  2.862723214285714 27.758620689655174  3.130580357142857 27.413793103448274  C 3.3984375 27.068965517241377  3.590959821428571 26.82173064411191  3.708147321428571 26.672088484059856  C 3.8253348214285716 26.522446324007806  3.9983258928571432 26.26545217957059  4.227120535714286 25.90110605074821  C 4.455915178571429 25.536759921925828  4.637276785714286 25.20494469746259  4.771205357142858 24.90566037735849  C 4.905133928571428 24.606376057254394  5.055803571428572 24.222511385816528  5.223214285714286 23.754066363044895  C 5.390625 23.28562134027326  5.5357142857142865 22.791151594014316  5.658482142857142 22.270657124268055  C 3.9062500000000004 21.112556929082626  2.525111607142857 19.681197137280417  1.5150669642857144 17.976577748861416  C 0.5050223214285714 16.27195836044242  0 14.443721535458685  0 12.491867273910215  C 0 10.800260247234872  0.3962053571428571 9.183474300585559  1.1886160714285714 7.641509433962266  C 1.9810267857142858 6.099544567338974  3.046875 4.769030579050097  4.386160714285714 3.6499674690956407  C 5.725446428571428 2.5309043591411817  7.321428571428572 1.6428106701366252  9.174107142857144 0.9856864020819778  C 11.026785714285715 0.3285621340273237  12.96875 0  15 0  C 17.723214285714285 0  20.234375000000004 0.5562784645413144  22.533482142857142 1.668835393623943  C 24.83258928571429 2.781392322706572  26.65178571428571 4.297332465842546  27.99107142857143 6.216655823031879  Z " stroke-width="0" stroke-dasharray="0" stroke="rgba(255, 255, 255, 0)" fill="none" transform="matrix(1 0 0 1 278 88 )" class="stroke" mask="url(#Clip46)" />
  </g>
</svg>