<?xml version="1.0" encoding="utf-8"?>
<svg version="1.1" xmlns:xlink="http://www.w3.org/1999/xlink" width="30px" height="30px" xmlns="http://www.w3.org/2000/svg">
  <defs>
    <pattern id="BGPattern" patternUnits="userSpaceOnUse" alignment="0 0" imageRepeat="None" />
    <mask fill="white" id="Clip47">
      <path d="M 29.80078125 21.689453124999996  C 29.93359375 22.672526041666664  30 23.717447916666668  30 24.82421875  C 30 26.243489583333336  29.51171875 27.4609375  28.53515625 28.4765625  C 27.558593750000004 29.4921875  26.382812500000004 30  25.0078125 30  L 4.9921875 30  C 3.6171875 30  2.4414062500000004 29.4921875  1.4648437500000002 28.4765625  C 0.4882812500000001 27.4609375  0 26.243489583333336  0 24.82421875  C 0 23.717447916666668  0.06640625000000015 22.672526041666664  0.19921875000000017 21.689453124999996  C 0.33203125000000017 20.70638020833333  0.5781250000000001 19.716796875  0.9375000000000002 18.720703125  C 1.2968750000000004 17.724609375  1.7539062500000002 16.871744791666668  2.30859375 16.162109375000004  C 2.8632812500000004 15.45247395833333  3.59765625 14.873046874999998  4.51171875 14.423828125000002  C 5.42578125 13.974609375  6.476562500000001 13.750000000000002  7.664062500000001 13.750000000000002  C 9.7109375 15.416666666666664  12.156250000000002 16.250000000000004  15 16.250000000000004  C 17.843750000000004 16.250000000000004  20.289062500000004 15.416666666666664  22.3359375 13.750000000000002  C 23.5234375 13.750000000000002  24.57421875 13.974609375  25.48828125 14.423828125000002  C 26.40234375 14.873046874999998  27.136718750000004 15.45247395833333  27.69140625 16.162109375000004  C 28.246093750000004 16.871744791666668  28.703125 17.724609375  29.0625 18.720703125  C 29.421875000000004 19.716796875  29.667968750000004 20.70638020833333  29.80078125 21.689453124999996  Z M 21.36328125 2.197265625  C 23.12109375 3.662109375  24 5.429687500000001  24 7.5  C 24 9.570312499999998  23.12109375 11.337890625  21.36328125 12.802734375  C 19.60546875 14.267578125  17.484375 15  15 15  C 12.515625 15  10.39453125 14.267578125  8.63671875 12.802734375  C 6.87890625 11.337890625  6 9.570312499999998  6 7.5  C 6 5.429687500000001  6.87890625 3.662109375  8.63671875 2.197265625  C 10.39453125 0.732421875  12.515625 0  15 0  C 17.484375 0  19.60546875 0.732421875  21.36328125 2.197265625  Z " fill-rule="evenodd" />
    </mask>
  </defs>
  <g transform="matrix(1 0 0 1 -164 -88 )">
    <path d="M 29.80078125 21.689453124999996  C 29.93359375 22.672526041666664  30 23.717447916666668  30 24.82421875  C 30 26.243489583333336  29.51171875 27.4609375  28.53515625 28.4765625  C 27.558593750000004 29.4921875  26.382812500000004 30  25.0078125 30  L 4.9921875 30  C 3.6171875 30  2.4414062500000004 29.4921875  1.4648437500000002 28.4765625  C 0.4882812500000001 27.4609375  0 26.243489583333336  0 24.82421875  C 0 23.717447916666668  0.06640625000000015 22.672526041666664  0.19921875000000017 21.689453124999996  C 0.33203125000000017 20.70638020833333  0.5781250000000001 19.716796875  0.9375000000000002 18.720703125  C 1.2968750000000004 17.724609375  1.7539062500000002 16.871744791666668  2.30859375 16.162109375000004  C 2.8632812500000004 15.45247395833333  3.59765625 14.873046874999998  4.51171875 14.423828125000002  C 5.42578125 13.974609375  6.476562500000001 13.750000000000002  7.664062500000001 13.750000000000002  C 9.7109375 15.416666666666664  12.156250000000002 16.250000000000004  15 16.250000000000004  C 17.843750000000004 16.250000000000004  20.289062500000004 15.416666666666664  22.3359375 13.750000000000002  C 23.5234375 13.750000000000002  24.57421875 13.974609375  25.48828125 14.423828125000002  C 26.40234375 14.873046874999998  27.136718750000004 15.45247395833333  27.69140625 16.162109375000004  C 28.246093750000004 16.871744791666668  28.703125 17.724609375  29.0625 18.720703125  C 29.421875000000004 19.716796875  29.667968750000004 20.70638020833333  29.80078125 21.689453124999996  Z M 21.36328125 2.197265625  C 23.12109375 3.662109375  24 5.429687500000001  24 7.5  C 24 9.570312499999998  23.12109375 11.337890625  21.36328125 12.802734375  C 19.60546875 14.267578125  17.484375 15  15 15  C 12.515625 15  10.39453125 14.267578125  8.63671875 12.802734375  C 6.87890625 11.337890625  6 9.570312499999998  6 7.5  C 6 5.429687500000001  6.87890625 3.662109375  8.63671875 2.197265625  C 10.39453125 0.732421875  12.515625 0  15 0  C 17.484375 0  19.60546875 0.732421875  21.36328125 2.197265625  Z " fill-rule="nonzero" fill="rgba(1, 111, 160, 0.6705882352941176)" stroke="none" transform="matrix(1 0 0 1 164 88 )" class="fill" />
    <path d="M 29.80078125 21.689453124999996  C 29.93359375 22.672526041666664  30 23.717447916666668  30 24.82421875  C 30 26.243489583333336  29.51171875 27.4609375  28.53515625 28.4765625  C 27.558593750000004 29.4921875  26.382812500000004 30  25.0078125 30  L 4.9921875 30  C 3.6171875 30  2.4414062500000004 29.4921875  1.4648437500000002 28.4765625  C 0.4882812500000001 27.4609375  0 26.243489583333336  0 24.82421875  C 0 23.717447916666668  0.06640625000000015 22.672526041666664  0.19921875000000017 21.689453124999996  C 0.33203125000000017 20.70638020833333  0.5781250000000001 19.716796875  0.9375000000000002 18.720703125  C 1.2968750000000004 17.724609375  1.7539062500000002 16.871744791666668  2.30859375 16.162109375000004  C 2.8632812500000004 15.45247395833333  3.59765625 14.873046874999998  4.51171875 14.423828125000002  C 5.42578125 13.974609375  6.476562500000001 13.750000000000002  7.664062500000001 13.750000000000002  C 9.7109375 15.416666666666664  12.156250000000002 16.250000000000004  15 16.250000000000004  C 17.843750000000004 16.250000000000004  20.289062500000004 15.416666666666664  22.3359375 13.750000000000002  C 23.5234375 13.750000000000002  24.57421875 13.974609375  25.48828125 14.423828125000002  C 26.40234375 14.873046874999998  27.136718750000004 15.45247395833333  27.69140625 16.162109375000004  C 28.246093750000004 16.871744791666668  28.703125 17.724609375  29.0625 18.720703125  C 29.421875000000004 19.716796875  29.667968750000004 20.70638020833333  29.80078125 21.689453124999996  Z " stroke-width="0" stroke-dasharray="0" stroke="rgba(255, 255, 255, 0)" fill="none" transform="matrix(1 0 0 1 164 88 )" class="stroke" mask="url(#Clip47)" />
    <path d="M 21.36328125 2.197265625  C 23.12109375 3.662109375  24 5.429687500000001  24 7.5  C 24 9.570312499999998  23.12109375 11.337890625  21.36328125 12.802734375  C 19.60546875 14.267578125  17.484375 15  15 15  C 12.515625 15  10.39453125 14.267578125  8.63671875 12.802734375  C 6.87890625 11.337890625  6 9.570312499999998  6 7.5  C 6 5.429687500000001  6.87890625 3.662109375  8.63671875 2.197265625  C 10.39453125 0.732421875  12.515625 0  15 0  C 17.484375 0  19.60546875 0.732421875  21.36328125 2.197265625  Z " stroke-width="0" stroke-dasharray="0" stroke="rgba(255, 255, 255, 0)" fill="none" transform="matrix(1 0 0 1 164 88 )" class="stroke" mask="url(#Clip47)" />
  </g>
</svg>