<?xml version="1.0" encoding="utf-8"?>
<svg version="1.1" xmlns:xlink="http://www.w3.org/1999/xlink" width="18px" height="15px" xmlns="http://www.w3.org/2000/svg">
  <defs>
    <pattern id="BGPattern" patternUnits="userSpaceOnUse" alignment="0 0" imageRepeat="None" />
    <mask fill="white" id="Clip42">
      <path d="M 7.0921875 6.8194110576923075  C 7.6203125 6.311598557692307  8.256250000000001 6.057692307692307  9 6.0576923076923075  C 9.743750000000002 6.057692307692307  10.379687500000001 6.311598557692307  10.907812499999999 6.8194110576923075  C 11.435937500000001 7.3272235576923075  11.700000000000001 7.9387019230769225  11.700000000000001 8.653846153846153  C 11.700000000000001 9.368990384615383  11.435937500000001 9.980468749999998  10.907812499999999 10.48828125  C 10.379687500000001 10.99609375  9.743750000000002 11.25  9 11.25  C 8.256250000000001 11.25  7.6203125 10.99609375  7.0921875 10.48828125  C 6.564062500000001 9.980468749999998  6.3 9.368990384615383  6.3 8.653846153846153  C 6.3 7.9387019230769225  6.564062500000001 7.3272235576923075  7.0921875 6.8194110576923075  Z M 13.5 2.307692307692308  L 15.600000000000001 2.307692307692308  C 16.262500000000003 2.307692307692308  16.828125000000004 2.533052884615384  17.296875 2.983774038461539  C 17.765625 3.434495192307692  18.000000000000004 3.9783653846153837  18 4.615384615384616  L 18 12.692307692307692  C 18.000000000000004 13.329326923076923  17.765625 13.873197115384615  17.296875 14.323918269230768  C 16.828125000000004 14.774639423076923  16.262500000000003 15  15.600000000000001 15  L 2.4 15  C 1.7375 15  1.171875 14.774639423076923  0.703125 14.323918269230768  C 0.234375 13.873197115384615  0 13.329326923076923  0 12.692307692307692  L 0 4.615384615384616  C 0 3.9783653846153837  0.234375 3.434495192307692  0.703125 2.983774038461539  C 1.171875 2.533052884615384  1.7375 2.307692307692308  2.4 2.307692307692308  L 4.5 2.307692307692308  L 4.9781249999999995 1.0817307692307687  C 5.096875000000001 0.7872596153846151  5.3140625 0.5333533653846145  5.629687499999999 0.3200120192307687  C 5.945312500000001 0.10667067307692457  6.268750000000001 0  6.6 0  L 11.399999999999999 0  C 11.731250000000001 0  12.0546875 0.10667067307692457  12.3703125 0.3200120192307687  C 12.685937500000001 0.5333533653846145  12.903125000000001 0.7872596153846151  13.021875 1.0817307692307687  L 13.5 2.307692307692308  Z M 6.0328124999999995 11.506911057692308  C 6.854687500000001 12.297175480769232  7.843750000000001 12.692307692307692  9 12.692307692307692  C 10.15625 12.692307692307692  11.145312500000001 12.297175480769232  11.9671875 11.506911057692308  C 12.7890625 10.716646634615383  13.2 9.765625  13.2 8.653846153846153  C 13.2 7.542067307692308  12.7890625 6.5910456730769225  11.9671875 5.80078125  C 11.145312500000001 5.010516826923076  10.15625 4.615384615384616  9 4.615384615384616  C 7.843750000000001 4.615384615384616  6.854687500000001 5.010516826923076  6.0328124999999995 5.80078125  C 5.2109375 6.5910456730769225  4.8 7.542067307692308  4.8 8.653846153846153  C 4.8 9.765625  5.2109375 10.716646634615383  6.0328124999999995 11.506911057692308  Z " fill-rule="evenodd" />
    </mask>
  </defs>
  <g transform="matrix(1 0 0 1 -277 -42 )">
    <path d="M 7.0921875 6.8194110576923075  C 7.6203125 6.311598557692307  8.256250000000001 6.057692307692307  9 6.0576923076923075  C 9.743750000000002 6.057692307692307  10.379687500000001 6.311598557692307  10.907812499999999 6.8194110576923075  C 11.435937500000001 7.3272235576923075  11.700000000000001 7.9387019230769225  11.700000000000001 8.653846153846153  C 11.700000000000001 9.368990384615383  11.435937500000001 9.980468749999998  10.907812499999999 10.48828125  C 10.379687500000001 10.99609375  9.743750000000002 11.25  9 11.25  C 8.256250000000001 11.25  7.6203125 10.99609375  7.0921875 10.48828125  C 6.564062500000001 9.980468749999998  6.3 9.368990384615383  6.3 8.653846153846153  C 6.3 7.9387019230769225  6.564062500000001 7.3272235576923075  7.0921875 6.8194110576923075  Z M 13.5 2.307692307692308  L 15.600000000000001 2.307692307692308  C 16.262500000000003 2.307692307692308  16.828125000000004 2.533052884615384  17.296875 2.983774038461539  C 17.765625 3.434495192307692  18.000000000000004 3.9783653846153837  18 4.615384615384616  L 18 12.692307692307692  C 18.000000000000004 13.329326923076923  17.765625 13.873197115384615  17.296875 14.323918269230768  C 16.828125000000004 14.774639423076923  16.262500000000003 15  15.600000000000001 15  L 2.4 15  C 1.7375 15  1.171875 14.774639423076923  0.703125 14.323918269230768  C 0.234375 13.873197115384615  0 13.329326923076923  0 12.692307692307692  L 0 4.615384615384616  C 0 3.9783653846153837  0.234375 3.434495192307692  0.703125 2.983774038461539  C 1.171875 2.533052884615384  1.7375 2.307692307692308  2.4 2.307692307692308  L 4.5 2.307692307692308  L 4.9781249999999995 1.0817307692307687  C 5.096875000000001 0.7872596153846151  5.3140625 0.5333533653846145  5.629687499999999 0.3200120192307687  C 5.945312500000001 0.10667067307692457  6.268750000000001 0  6.6 0  L 11.399999999999999 0  C 11.731250000000001 0  12.0546875 0.10667067307692457  12.3703125 0.3200120192307687  C 12.685937500000001 0.5333533653846145  12.903125000000001 0.7872596153846151  13.021875 1.0817307692307687  L 13.5 2.307692307692308  Z M 6.0328124999999995 11.506911057692308  C 6.854687500000001 12.297175480769232  7.843750000000001 12.692307692307692  9 12.692307692307692  C 10.15625 12.692307692307692  11.145312500000001 12.297175480769232  11.9671875 11.506911057692308  C 12.7890625 10.716646634615383  13.2 9.765625  13.2 8.653846153846153  C 13.2 7.542067307692308  12.7890625 6.5910456730769225  11.9671875 5.80078125  C 11.145312500000001 5.010516826923076  10.15625 4.615384615384616  9 4.615384615384616  C 7.843750000000001 4.615384615384616  6.854687500000001 5.010516826923076  6.0328124999999995 5.80078125  C 5.2109375 6.5910456730769225  4.8 7.542067307692308  4.8 8.653846153846153  C 4.8 9.765625  5.2109375 10.716646634615383  6.0328124999999995 11.506911057692308  Z " fill-rule="nonzero" fill="rgba(0, 0, 0, 0)" stroke="none" transform="matrix(1 0 0 1 277 42 )" class="fill" />
    <path d="M 7.0921875 6.8194110576923075  C 7.6203125 6.311598557692307  8.256250000000001 6.057692307692307  9 6.0576923076923075  C 9.743750000000002 6.057692307692307  10.379687500000001 6.311598557692307  10.907812499999999 6.8194110576923075  C 11.435937500000001 7.3272235576923075  11.700000000000001 7.9387019230769225  11.700000000000001 8.653846153846153  C 11.700000000000001 9.368990384615383  11.435937500000001 9.980468749999998  10.907812499999999 10.48828125  C 10.379687500000001 10.99609375  9.743750000000002 11.25  9 11.25  C 8.256250000000001 11.25  7.6203125 10.99609375  7.0921875 10.48828125  C 6.564062500000001 9.980468749999998  6.3 9.368990384615383  6.3 8.653846153846153  C 6.3 7.9387019230769225  6.564062500000001 7.3272235576923075  7.0921875 6.8194110576923075  Z " stroke-width="2" stroke-dasharray="0" stroke="rgba(51, 51, 51, 1)" fill="none" transform="matrix(1 0 0 1 277 42 )" class="stroke" mask="url(#Clip42)" />
    <path d="M 13.5 2.307692307692308  L 15.600000000000001 2.307692307692308  C 16.262500000000003 2.307692307692308  16.828125000000004 2.533052884615384  17.296875 2.983774038461539  C 17.765625 3.434495192307692  18.000000000000004 3.9783653846153837  18 4.615384615384616  L 18 12.692307692307692  C 18.000000000000004 13.329326923076923  17.765625 13.873197115384615  17.296875 14.323918269230768  C 16.828125000000004 14.774639423076923  16.262500000000003 15  15.600000000000001 15  L 2.4 15  C 1.7375 15  1.171875 14.774639423076923  0.703125 14.323918269230768  C 0.234375 13.873197115384615  0 13.329326923076923  0 12.692307692307692  L 0 4.615384615384616  C 0 3.9783653846153837  0.234375 3.434495192307692  0.703125 2.983774038461539  C 1.171875 2.533052884615384  1.7375 2.307692307692308  2.4 2.307692307692308  L 4.5 2.307692307692308  L 4.9781249999999995 1.0817307692307687  C 5.096875000000001 0.7872596153846151  5.3140625 0.5333533653846145  5.629687499999999 0.3200120192307687  C 5.945312500000001 0.10667067307692457  6.268750000000001 0  6.6 0  L 11.399999999999999 0  C 11.731250000000001 0  12.0546875 0.10667067307692457  12.3703125 0.3200120192307687  C 12.685937500000001 0.5333533653846145  12.903125000000001 0.7872596153846151  13.021875 1.0817307692307687  L 13.5 2.307692307692308  Z " stroke-width="2" stroke-dasharray="0" stroke="rgba(51, 51, 51, 1)" fill="none" transform="matrix(1 0 0 1 277 42 )" class="stroke" mask="url(#Clip42)" />
    <path d="M 6.0328124999999995 11.506911057692308  C 6.854687500000001 12.297175480769232  7.843750000000001 12.692307692307692  9 12.692307692307692  C 10.15625 12.692307692307692  11.145312500000001 12.297175480769232  11.9671875 11.506911057692308  C 12.7890625 10.716646634615383  13.2 9.765625  13.2 8.653846153846153  C 13.2 7.542067307692308  12.7890625 6.5910456730769225  11.9671875 5.80078125  C 11.145312500000001 5.010516826923076  10.15625 4.615384615384616  9 4.615384615384616  C 7.843750000000001 4.615384615384616  6.854687500000001 5.010516826923076  6.0328124999999995 5.80078125  C 5.2109375 6.5910456730769225  4.8 7.542067307692308  4.8 8.653846153846153  C 4.8 9.765625  5.2109375 10.716646634615383  6.0328124999999995 11.506911057692308  Z " stroke-width="2" stroke-dasharray="0" stroke="rgba(51, 51, 51, 1)" fill="none" transform="matrix(1 0 0 1 277 42 )" class="stroke" mask="url(#Clip42)" />
  </g>
</svg>