<?xml version="1.0" encoding="utf-8"?>
<svg version="1.1" xmlns:xlink="http://www.w3.org/1999/xlink" width="14px" height="22px" xmlns="http://www.w3.org/2000/svg">
  <defs>
    <pattern id="BGPattern" patternUnits="userSpaceOnUse" alignment="0 0" imageRepeat="None" />
    <mask fill="white" id="Clip41">
      <path d="M 13.759450171821305 1.3226452905811612  C 13.919816723940437 1.469605878423511  14 1.638610554442215  14 1.8296593186372752  C 14 2.0207080828323303  13.919816723940437 2.1897127588510346  13.759450171821305 2.3366733466933867  L 4.305841924398626 11  L 13.759450171821305 19.663326653306612  C 13.919816723940437 19.810287241148966  14 19.979291917167668  14 20.170340681362724  C 14 20.361389445557784  13.919816723940437 20.530394121576485  13.759450171821305 20.67735470941884  L 12.556701030927835 21.779559118236474  C 12.396334478808706 21.926519706078825  12.211912943871708 22  12.003436426116838 22  C 11.794959908361971 22  11.610538373424973 21.926519706078825  11.450171821305842 21.779559118236474  L 0.2405498281786942 11.507014028056112  C 0.08018327605956477 11.36005344021376  0 11.191048764195056  0 11  C 0 10.808951235804942  0.08018327605956477 10.639946559786239  0.2405498281786942 10.492985971943888  L 11.450171821305842 0.22044088176352727  C 11.610538373424973 0.07348029392117494  11.794959908361971 0  12.003436426116838 0  C 12.211912943871708 0  12.396334478808706 0.07348029392117494  12.556701030927835 0.22044088176352727  L 13.759450171821305 1.3226452905811612  Z " fill-rule="evenodd" />
    </mask>
  </defs>
  <g transform="matrix(1 0 0 1 -11 -39 )">
    <path d="M 13.759450171821305 1.3226452905811612  C 13.919816723940437 1.469605878423511  14 1.638610554442215  14 1.8296593186372752  C 14 2.0207080828323303  13.919816723940437 2.1897127588510346  13.759450171821305 2.3366733466933867  L 4.305841924398626 11  L 13.759450171821305 19.663326653306612  C 13.919816723940437 19.810287241148966  14 19.979291917167668  14 20.170340681362724  C 14 20.361389445557784  13.919816723940437 20.530394121576485  13.759450171821305 20.67735470941884  L 12.556701030927835 21.779559118236474  C 12.396334478808706 21.926519706078825  12.211912943871708 22  12.003436426116838 22  C 11.794959908361971 22  11.610538373424973 21.926519706078825  11.450171821305842 21.779559118236474  L 0.2405498281786942 11.507014028056112  C 0.08018327605956477 11.36005344021376  0 11.191048764195056  0 11  C 0 10.808951235804942  0.08018327605956477 10.639946559786239  0.2405498281786942 10.492985971943888  L 11.450171821305842 0.22044088176352727  C 11.610538373424973 0.07348029392117494  11.794959908361971 0  12.003436426116838 0  C 12.211912943871708 0  12.396334478808706 0.07348029392117494  12.556701030927835 0.22044088176352727  L 13.759450171821305 1.3226452905811612  Z " fill-rule="nonzero" fill="rgba(0, 0, 0, 1)" stroke="none" transform="matrix(1 0 0 1 11 39 )" class="fill" />
    <path d="M 13.759450171821305 1.3226452905811612  C 13.919816723940437 1.469605878423511  14 1.638610554442215  14 1.8296593186372752  C 14 2.0207080828323303  13.919816723940437 2.1897127588510346  13.759450171821305 2.3366733466933867  L 4.305841924398626 11  L 13.759450171821305 19.663326653306612  C 13.919816723940437 19.810287241148966  14 19.979291917167668  14 20.170340681362724  C 14 20.361389445557784  13.919816723940437 20.530394121576485  13.759450171821305 20.67735470941884  L 12.556701030927835 21.779559118236474  C 12.396334478808706 21.926519706078825  12.211912943871708 22  12.003436426116838 22  C 11.794959908361971 22  11.610538373424973 21.926519706078825  11.450171821305842 21.779559118236474  L 0.2405498281786942 11.507014028056112  C 0.08018327605956477 11.36005344021376  0 11.191048764195056  0 11  C 0 10.808951235804942  0.08018327605956477 10.639946559786239  0.2405498281786942 10.492985971943888  L 11.450171821305842 0.22044088176352727  C 11.610538373424973 0.07348029392117494  11.794959908361971 0  12.003436426116838 0  C 12.211912943871708 0  12.396334478808706 0.07348029392117494  12.556701030927835 0.22044088176352727  L 13.759450171821305 1.3226452905811612  Z " stroke-width="0" stroke-dasharray="0" stroke="rgba(255, 255, 255, 0)" fill="none" transform="matrix(1 0 0 1 11 39 )" class="stroke" mask="url(#Clip41)" />
  </g>
</svg>