<?xml version="1.0" encoding="utf-8"?>
<svg version="1.1" xmlns:xlink="http://www.w3.org/1999/xlink" width="16px" height="18px" xmlns="http://www.w3.org/2000/svg">
  <defs>
    <pattern id="BGPattern" patternUnits="userSpaceOnUse" alignment="0 0" imageRepeat="None" />
    <mask fill="white" id="Clip49">
      <path d="M 15.830357142857142 5.973750000000001  C 15.943452380952381 6.116249999999999  16 6.284999999999999  16 6.4799999999999995  C 16 6.674999999999998  15.943452380952381 6.843749999999998  15.830357142857142 6.986250000000001  L 11.258928571428571 12.74625  C 11.145833333333334 12.888749999999998  11.011904761904763 12.959999999999999  10.857142857142858 12.959999999999999  C 10.702380952380953 12.959999999999999  10.568452380952381 12.888749999999998  10.455357142857142 12.74625  C 10.342261904761907 12.60375  10.285714285714286 12.434999999999999  10.285714285714286 12.239999999999998  L 10.285714285714286 9.36  L 8.285714285714286 9.36  C 7.702380952380953 9.36  7.180059523809525 9.3825  6.71875 9.427499999999998  C 6.257440476190476 9.4725  5.799107142857143 9.553125000000001  5.34375 9.669374999999999  C 4.888392857142857 9.785625  4.492559523809525 9.945  4.15625 10.147499999999999  C 3.8199404761904767 10.35  3.505952380952381 10.610625  3.2142857142857144 10.929375  C 2.922619047619048 11.248124999999998  2.6845238095238098 11.626875000000002  2.5 12.065624999999999  C 2.3154761904761907 12.504375  2.1711309523809526 13.023749999999998  2.0669642857142856 13.62375  C 1.962797619047619 14.223749999999999  1.9107142857142858 14.902500000000002  1.9107142857142858 15.66  C 1.9107142857142858 16.0725  1.9255952380952384 16.53375  1.9553571428571428 17.04375  C 1.955357142857143 17.08875  1.9627976190476193 17.176875  1.9776785714285714 17.308125  C 1.992559523809524 17.439375000000002  2 17.53875  2 17.60625  C 2 17.71875  1.9747023809523812 17.8125  1.9241071428571428 17.8875  C 1.873511904761905 17.9625  1.8035714285714288 18  1.7142857142857142 18  C 1.619047619047619 18  1.5357142857142858 17.93625  1.4642857142857142 17.80875  C 1.4226190476190477 17.74125  1.3839285714285714 17.65875  1.3482142857142858 17.56125  C 1.3125 17.46375  1.2723214285714286 17.35125  1.2276785714285714 17.22375  C 1.1830357142857142 17.09625  1.1517857142857142 17.00625  1.1339285714285714 16.95375  C 0.3779761904761904 14.81625  0 13.124999999999996  0 11.879999999999999  C 0 10.3875  0.1577380952380952 9.138749999999998  0.4732142857142857 8.133750000000001  C 1.4375 5.11125  4.041666666666666 3.599999999999999  8.285714285714286 3.599999999999999  L 10.285714285714286 3.599999999999999  L 10.285714285714286 0.7200000000000006  C 10.285714285714286 0.5249999999999981  10.342261904761907 0.35624999999999774  10.455357142857142 0.21374999999999944  C 10.568452380952381 0.07124999999999915  10.702380952380953 0  10.857142857142858 0  C 11.011904761904763 0  11.145833333333334 0.07124999999999915  11.258928571428571 0.21374999999999944  L 15.830357142857142 5.973750000000001  Z " fill-rule="evenodd" />
    </mask>
  </defs>
  <g transform="matrix(1 0 0 1 -330 -33 )">
    <path d="M 15.830357142857142 5.973750000000001  C 15.943452380952381 6.116249999999999  16 6.284999999999999  16 6.4799999999999995  C 16 6.674999999999998  15.943452380952381 6.843749999999998  15.830357142857142 6.986250000000001  L 11.258928571428571 12.74625  C 11.145833333333334 12.888749999999998  11.011904761904763 12.959999999999999  10.857142857142858 12.959999999999999  C 10.702380952380953 12.959999999999999  10.568452380952381 12.888749999999998  10.455357142857142 12.74625  C 10.342261904761907 12.60375  10.285714285714286 12.434999999999999  10.285714285714286 12.239999999999998  L 10.285714285714286 9.36  L 8.285714285714286 9.36  C 7.702380952380953 9.36  7.180059523809525 9.3825  6.71875 9.427499999999998  C 6.257440476190476 9.4725  5.799107142857143 9.553125000000001  5.34375 9.669374999999999  C 4.888392857142857 9.785625  4.492559523809525 9.945  4.15625 10.147499999999999  C 3.8199404761904767 10.35  3.505952380952381 10.610625  3.2142857142857144 10.929375  C 2.922619047619048 11.248124999999998  2.6845238095238098 11.626875000000002  2.5 12.065624999999999  C 2.3154761904761907 12.504375  2.1711309523809526 13.023749999999998  2.0669642857142856 13.62375  C 1.962797619047619 14.223749999999999  1.9107142857142858 14.902500000000002  1.9107142857142858 15.66  C 1.9107142857142858 16.0725  1.9255952380952384 16.53375  1.9553571428571428 17.04375  C 1.955357142857143 17.08875  1.9627976190476193 17.176875  1.9776785714285714 17.308125  C 1.992559523809524 17.439375000000002  2 17.53875  2 17.60625  C 2 17.71875  1.9747023809523812 17.8125  1.9241071428571428 17.8875  C 1.873511904761905 17.9625  1.8035714285714288 18  1.7142857142857142 18  C 1.619047619047619 18  1.5357142857142858 17.93625  1.4642857142857142 17.80875  C 1.4226190476190477 17.74125  1.3839285714285714 17.65875  1.3482142857142858 17.56125  C 1.3125 17.46375  1.2723214285714286 17.35125  1.2276785714285714 17.22375  C 1.1830357142857142 17.09625  1.1517857142857142 17.00625  1.1339285714285714 16.95375  C 0.3779761904761904 14.81625  0 13.124999999999996  0 11.879999999999999  C 0 10.3875  0.1577380952380952 9.138749999999998  0.4732142857142857 8.133750000000001  C 1.4375 5.11125  4.041666666666666 3.599999999999999  8.285714285714286 3.599999999999999  L 10.285714285714286 3.599999999999999  L 10.285714285714286 0.7200000000000006  C 10.285714285714286 0.5249999999999981  10.342261904761907 0.35624999999999774  10.455357142857142 0.21374999999999944  C 10.568452380952381 0.07124999999999915  10.702380952380953 0  10.857142857142858 0  C 11.011904761904763 0  11.145833333333334 0.07124999999999915  11.258928571428571 0.21374999999999944  L 15.830357142857142 5.973750000000001  Z " fill-rule="nonzero" fill="rgba(0, 0, 0, 0)" stroke="none" transform="matrix(1 0 0 1 330 33 )" class="fill" />
    <path d="M 15.830357142857142 5.973750000000001  C 15.943452380952381 6.116249999999999  16 6.284999999999999  16 6.4799999999999995  C 16 6.674999999999998  15.943452380952381 6.843749999999998  15.830357142857142 6.986250000000001  L 11.258928571428571 12.74625  C 11.145833333333334 12.888749999999998  11.011904761904763 12.959999999999999  10.857142857142858 12.959999999999999  C 10.702380952380953 12.959999999999999  10.568452380952381 12.888749999999998  10.455357142857142 12.74625  C 10.342261904761907 12.60375  10.285714285714286 12.434999999999999  10.285714285714286 12.239999999999998  L 10.285714285714286 9.36  L 8.285714285714286 9.36  C 7.702380952380953 9.36  7.180059523809525 9.3825  6.71875 9.427499999999998  C 6.257440476190476 9.4725  5.799107142857143 9.553125000000001  5.34375 9.669374999999999  C 4.888392857142857 9.785625  4.492559523809525 9.945  4.15625 10.147499999999999  C 3.8199404761904767 10.35  3.505952380952381 10.610625  3.2142857142857144 10.929375  C 2.922619047619048 11.248124999999998  2.6845238095238098 11.626875000000002  2.5 12.065624999999999  C 2.3154761904761907 12.504375  2.1711309523809526 13.023749999999998  2.0669642857142856 13.62375  C 1.962797619047619 14.223749999999999  1.9107142857142858 14.902500000000002  1.9107142857142858 15.66  C 1.9107142857142858 16.0725  1.9255952380952384 16.53375  1.9553571428571428 17.04375  C 1.955357142857143 17.08875  1.9627976190476193 17.176875  1.9776785714285714 17.308125  C 1.992559523809524 17.439375000000002  2 17.53875  2 17.60625  C 2 17.71875  1.9747023809523812 17.8125  1.9241071428571428 17.8875  C 1.873511904761905 17.9625  1.8035714285714288 18  1.7142857142857142 18  C 1.619047619047619 18  1.5357142857142858 17.93625  1.4642857142857142 17.80875  C 1.4226190476190477 17.74125  1.3839285714285714 17.65875  1.3482142857142858 17.56125  C 1.3125 17.46375  1.2723214285714286 17.35125  1.2276785714285714 17.22375  C 1.1830357142857142 17.09625  1.1517857142857142 17.00625  1.1339285714285714 16.95375  C 0.3779761904761904 14.81625  0 13.124999999999996  0 11.879999999999999  C 0 10.3875  0.1577380952380952 9.138749999999998  0.4732142857142857 8.133750000000001  C 1.4375 5.11125  4.041666666666666 3.599999999999999  8.285714285714286 3.599999999999999  L 10.285714285714286 3.599999999999999  L 10.285714285714286 0.7200000000000006  C 10.285714285714286 0.5249999999999981  10.342261904761907 0.35624999999999774  10.455357142857142 0.21374999999999944  C 10.568452380952381 0.07124999999999915  10.702380952380953 0  10.857142857142858 0  C 11.011904761904763 0  11.145833333333334 0.07124999999999915  11.258928571428571 0.21374999999999944  L 15.830357142857142 5.973750000000001  Z " stroke-width="2" stroke-dasharray="0" stroke="rgba(255, 255, 255, 1)" fill="none" transform="matrix(1 0 0 1 330 33 )" class="stroke" mask="url(#Clip49)" />
  </g>
</svg>