<?xml version="1.0" encoding="utf-8"?>
<svg version="1.1" xmlns:xlink="http://www.w3.org/1999/xlink" width="21px" height="22px" xmlns="http://www.w3.org/2000/svg">
  <defs>
    <pattern id="BGPattern" patternUnits="userSpaceOnUse" alignment="0 0" imageRepeat="None" />
    <mask fill="white" id="Clip51">
      <path d="M 0 11  C 0 4.84  4.619999999999999 0  10.5 0  C 16.38 0  21 4.84  21 11  C 21 17.16  16.38 22  10.5 22  C 4.619999999999999 22  0 17.16  0 11  Z " fill-rule="evenodd" />
    </mask>
  </defs>
  <g transform="matrix(1 0 0 1 -64 -119 )">
    <path d="M 0 11  C 0 4.84  4.619999999999999 0  10.5 0  C 16.38 0  21 4.84  21 11  C 21 17.16  16.38 22  10.5 22  C 4.619999999999999 22  0 17.16  0 11  Z " fill-rule="nonzero" fill="rgba(255, 255, 128, 1)" stroke="none" transform="matrix(1 0 0 1 64 119 )" class="fill" />
    <path d="M 0 11  C 0 4.84  4.619999999999999 0  10.5 0  C 16.38 0  21 4.84  21 11  C 21 17.16  16.38 22  10.5 22  C 4.619999999999999 22  0 17.16  0 11  Z " stroke-width="0" stroke-dasharray="0" stroke="rgba(255, 255, 255, 1)" fill="none" transform="matrix(1 0 0 1 64 119 )" class="stroke" mask="url(#Clip51)" />
  </g>
</svg>