<?xml version="1.0" encoding="utf-8"?>
<svg version="1.1" xmlns:xlink="http://www.w3.org/1999/xlink" width="10px" height="10px" xmlns="http://www.w3.org/2000/svg">
  <defs>
    <pattern id="BGPattern" patternUnits="userSpaceOnUse" alignment="0 0" imageRepeat="None" />
    <mask fill="white" id="Clip52">
      <path d="M 6.178385416666666 6.178385416666668  C 6.50390625 5.852864583333332  6.666666666666666 5.460069444444445  6.666666666666666 5  C 6.666666666666666 4.5399305555555545  6.50390625 4.147135416666666  6.178385416666666 3.821614583333334  C 5.852864583333334 3.49609375  5.4600694444444455 3.333333333333334  5 3.333333333333334  C 4.539930555555555 3.333333333333334  4.147135416666667 3.49609375  3.821614583333333 3.821614583333334  C 3.49609375 4.147135416666666  3.333333333333333 4.5399305555555545  3.333333333333333 5  C 3.333333333333333 5.460069444444445  3.49609375 5.852864583333332  3.821614583333333 6.178385416666668  C 4.147135416666667 6.50390625  4.539930555555555 6.666666666666668  5 6.666666666666668  C 5.4600694444444455 6.666666666666668  5.852864583333334 6.50390625  6.178385416666666 6.178385416666668  Z M 9.947916666666666 4.137369791666666  C 9.98263888888889 4.182942708333334  10 4.233940972222222  10 4.290364583333334  L 10 5.735677083333332  C 10 5.787760416666668  9.98263888888889 5.837673611111112  9.947916666666666 5.885416666666668  C 9.913194444444445 5.933159722222221  9.869791666666666 5.961371527777777  9.817708333333334 5.970052083333332  L 8.61328125 6.15234375  C 8.530815972222223 6.38671875  8.446180555555557 6.584201388888888  8.359375 6.744791666666668  C 8.511284722222223 6.961805555555555  8.743489583333334 7.261284722222221  9.055989583333334 7.643229166666666  C 9.09939236111111 7.6953125  9.12109375 7.749565972222222  9.12109375 7.805989583333334  C 9.12109375 7.8624131944444455  9.1015625 7.912326388888888  9.0625 7.955729166666666  C 8.9453125 8.116319444444445  8.73046875 8.350694444444445  8.41796875 8.658854166666666  C 8.10546875 8.96701388888889  7.9014756944444455 9.12109375  7.805989583333334 9.12109375  C 7.75390625 9.12109375  7.697482638888889 9.1015625  7.63671875 9.0625  L 6.73828125 8.359375  C 6.547309027777778 8.45920138888889  6.349826388888889 8.541666666666666  6.145833333333334 8.606770833333334  C 6.076388888888889 9.19704861111111  6.013454861111112 9.600694444444445  5.95703125 9.817708333333334  C 5.926649305555555 9.93923611111111  5.848524305555555 10  5.72265625 10  L 4.27734375 10  C 4.216579861111112 10  4.163411458333333 9.981553819444445  4.117838541666667 9.944661458333334  C 4.072265625 9.907769097222221  4.047309027777779 9.86111111111111  4.04296875 9.8046875  L 3.860677083333333 8.606770833333334  C 3.6480034722222228 8.53732638888889  3.4526909722222228 8.45703125  3.274739583333333 8.365885416666666  L 2.3567708333333335 9.0625  C 2.313368055555556 9.1015625  2.2591145833333335 9.12109375  2.1940104166666665 9.12109375  C 2.1332465277777777 9.12109375  2.078993055555556 9.097222222222221  2.03125 9.049479166666666  C 1.484375 8.5546875  1.1263020833333333 8.190104166666666  0.95703125 7.955729166666666  C 0.9266493055555557 7.912326388888888  0.9114583333333333 7.8624131944444455  0.9114583333333333 7.805989583333334  C 0.9114583333333333 7.75390625  0.9288194444444446 7.7039930555555545  0.9635416666666667 7.65625  C 1.0286458333333333 7.565104166666666  1.1393229166666667 7.420789930555555  1.2955729166666665 7.223307291666668  C 1.4518229166666665 7.025824652777777  1.5690104166666665 6.872829861111109  1.6471354166666665 6.764322916666668  C 1.5299479166666665 6.547309027777777  1.4409722222222223 6.332465277777777  1.3802083333333335 6.119791666666668  L 0.18880208333333331 5.944010416666668  C 0.13237847222222224 5.935329861111112  0.08680555555555555 5.908203125  0.05208333333333333 5.862630208333332  C 0.017361111111111112 5.817057291666668  0 5.766059027777777  0 5.709635416666668  L 0 4.264322916666666  C 0 4.212239583333334  0.017361111111111112 4.162326388888888  0.05208333333333333 4.114583333333334  C 0.08680555555555555 4.066840277777778  0.12803819444444445 4.038628472222222  0.17578125 4.029947916666666  L 1.38671875 3.84765625  C 1.4474826388888888 3.6480034722222223  1.5321180555555556 3.448350694444444  1.640625 3.248697916666666  C 1.4670138888888888 3.001302083333334  1.234809027777778 2.701822916666666  0.9440104166666667 2.350260416666666  C 0.900607638888889 2.298177083333334  0.87890625 2.24609375  0.87890625 2.194010416666666  C 0.87890625 2.1506076388888884  0.8984375 2.100694444444443  0.9375 2.044270833333334  C 1.0503472222222223 1.8880208333333337  1.264105902777778 1.6547309027777768  1.5787760416666665 1.3444010416666663  C 1.8934461805555558 1.0340711805555547  2.098524305555556 0.87890625  2.1940104166666665 0.87890625  C 2.2504340277777777 0.87890625  2.3068576388888893 0.9006076388888884  2.36328125 0.9440104166666663  L 3.26171875 1.640625  C 3.4526909722222228 1.5407986111111105  3.6501736111111116 1.4583333333333337  3.854166666666667 1.3932291666666663  C 3.9236111111111116 0.8029513888888884  3.986545138888889 0.3993055555555547  4.04296875 0.1822916666666663  C 4.073350694444445 0.060763888888888395  4.151475694444445 0  4.27734375 0  L 5.72265625 0  C 5.783420138888889 0  5.836588541666666 0.018446180555554692  5.882161458333334 0.0553385416666663  C 5.927734375 0.09223090277777679  5.952690972222222 0.1388888888888884  5.95703125 0.1953125  L 6.139322916666666 1.3932291666666663  C 6.351996527777778 1.4626736111111105  6.547309027777778 1.54296875  6.725260416666666 1.6341145833333337  L 7.649739583333334 0.9375  C 7.688802083333334 0.8984375  7.740885416666666 0.87890625  7.805989583333334 0.87890625  C 7.8624131944444455 0.87890625  7.916666666666666 0.9006076388888884  7.96875 0.9440104166666663  C 8.528645833333334 1.460503472222222  8.88671875 1.8294270833333337  9.04296875 2.05078125  C 9.073350694444445 2.0855034722222223  9.088541666666666 2.133246527777777  9.088541666666666 2.194010416666666  C 9.088541666666666 2.24609375  9.071180555555557 2.296006944444443  9.036458333333334 2.34375  C 8.971354166666666 2.434895833333334  8.860677083333334 2.579210069444443  8.704427083333334 2.776692708333334  C 8.548177083333334 2.9741753472222223  8.430989583333334 3.1271701388888884  8.352864583333334 3.235677083333334  C 8.465711805555557 3.4526909722222223  8.5546875 3.6653645833333326  8.619791666666666 3.873697916666666  L 9.811197916666666 4.055989583333334  C 9.867621527777779 4.064670138888888  9.913194444444445 4.091796874999999  9.947916666666666 4.137369791666666  Z " fill-rule="evenodd" />
    </mask>
  </defs>
  <g transform="matrix(1 0 0 1 -317 -227 )">
    <path d="M 6.178385416666666 6.178385416666668  C 6.50390625 5.852864583333332  6.666666666666666 5.460069444444445  6.666666666666666 5  C 6.666666666666666 4.5399305555555545  6.50390625 4.147135416666666  6.178385416666666 3.821614583333334  C 5.852864583333334 3.49609375  5.4600694444444455 3.333333333333334  5 3.333333333333334  C 4.539930555555555 3.333333333333334  4.147135416666667 3.49609375  3.821614583333333 3.821614583333334  C 3.49609375 4.147135416666666  3.333333333333333 4.5399305555555545  3.333333333333333 5  C 3.333333333333333 5.460069444444445  3.49609375 5.852864583333332  3.821614583333333 6.178385416666668  C 4.147135416666667 6.50390625  4.539930555555555 6.666666666666668  5 6.666666666666668  C 5.4600694444444455 6.666666666666668  5.852864583333334 6.50390625  6.178385416666666 6.178385416666668  Z M 9.947916666666666 4.137369791666666  C 9.98263888888889 4.182942708333334  10 4.233940972222222  10 4.290364583333334  L 10 5.735677083333332  C 10 5.787760416666668  9.98263888888889 5.837673611111112  9.947916666666666 5.885416666666668  C 9.913194444444445 5.933159722222221  9.869791666666666 5.961371527777777  9.817708333333334 5.970052083333332  L 8.61328125 6.15234375  C 8.530815972222223 6.38671875  8.446180555555557 6.584201388888888  8.359375 6.744791666666668  C 8.511284722222223 6.961805555555555  8.743489583333334 7.261284722222221  9.055989583333334 7.643229166666666  C 9.09939236111111 7.6953125  9.12109375 7.749565972222222  9.12109375 7.805989583333334  C 9.12109375 7.8624131944444455  9.1015625 7.912326388888888  9.0625 7.955729166666666  C 8.9453125 8.116319444444445  8.73046875 8.350694444444445  8.41796875 8.658854166666666  C 8.10546875 8.96701388888889  7.9014756944444455 9.12109375  7.805989583333334 9.12109375  C 7.75390625 9.12109375  7.697482638888889 9.1015625  7.63671875 9.0625  L 6.73828125 8.359375  C 6.547309027777778 8.45920138888889  6.349826388888889 8.541666666666666  6.145833333333334 8.606770833333334  C 6.076388888888889 9.19704861111111  6.013454861111112 9.600694444444445  5.95703125 9.817708333333334  C 5.926649305555555 9.93923611111111  5.848524305555555 10  5.72265625 10  L 4.27734375 10  C 4.216579861111112 10  4.163411458333333 9.981553819444445  4.117838541666667 9.944661458333334  C 4.072265625 9.907769097222221  4.047309027777779 9.86111111111111  4.04296875 9.8046875  L 3.860677083333333 8.606770833333334  C 3.6480034722222228 8.53732638888889  3.4526909722222228 8.45703125  3.274739583333333 8.365885416666666  L 2.3567708333333335 9.0625  C 2.313368055555556 9.1015625  2.2591145833333335 9.12109375  2.1940104166666665 9.12109375  C 2.1332465277777777 9.12109375  2.078993055555556 9.097222222222221  2.03125 9.049479166666666  C 1.484375 8.5546875  1.1263020833333333 8.190104166666666  0.95703125 7.955729166666666  C 0.9266493055555557 7.912326388888888  0.9114583333333333 7.8624131944444455  0.9114583333333333 7.805989583333334  C 0.9114583333333333 7.75390625  0.9288194444444446 7.7039930555555545  0.9635416666666667 7.65625  C 1.0286458333333333 7.565104166666666  1.1393229166666667 7.420789930555555  1.2955729166666665 7.223307291666668  C 1.4518229166666665 7.025824652777777  1.5690104166666665 6.872829861111109  1.6471354166666665 6.764322916666668  C 1.5299479166666665 6.547309027777777  1.4409722222222223 6.332465277777777  1.3802083333333335 6.119791666666668  L 0.18880208333333331 5.944010416666668  C 0.13237847222222224 5.935329861111112  0.08680555555555555 5.908203125  0.05208333333333333 5.862630208333332  C 0.017361111111111112 5.817057291666668  0 5.766059027777777  0 5.709635416666668  L 0 4.264322916666666  C 0 4.212239583333334  0.017361111111111112 4.162326388888888  0.05208333333333333 4.114583333333334  C 0.08680555555555555 4.066840277777778  0.12803819444444445 4.038628472222222  0.17578125 4.029947916666666  L 1.38671875 3.84765625  C 1.4474826388888888 3.6480034722222223  1.5321180555555556 3.448350694444444  1.640625 3.248697916666666  C 1.4670138888888888 3.001302083333334  1.234809027777778 2.701822916666666  0.9440104166666667 2.350260416666666  C 0.900607638888889 2.298177083333334  0.87890625 2.24609375  0.87890625 2.194010416666666  C 0.87890625 2.1506076388888884  0.8984375 2.100694444444443  0.9375 2.044270833333334  C 1.0503472222222223 1.8880208333333337  1.264105902777778 1.6547309027777768  1.5787760416666665 1.3444010416666663  C 1.8934461805555558 1.0340711805555547  2.098524305555556 0.87890625  2.1940104166666665 0.87890625  C 2.2504340277777777 0.87890625  2.3068576388888893 0.9006076388888884  2.36328125 0.9440104166666663  L 3.26171875 1.640625  C 3.4526909722222228 1.5407986111111105  3.6501736111111116 1.4583333333333337  3.854166666666667 1.3932291666666663  C 3.9236111111111116 0.8029513888888884  3.986545138888889 0.3993055555555547  4.04296875 0.1822916666666663  C 4.073350694444445 0.060763888888888395  4.151475694444445 0  4.27734375 0  L 5.72265625 0  C 5.783420138888889 0  5.836588541666666 0.018446180555554692  5.882161458333334 0.0553385416666663  C 5.927734375 0.09223090277777679  5.952690972222222 0.1388888888888884  5.95703125 0.1953125  L 6.139322916666666 1.3932291666666663  C 6.351996527777778 1.4626736111111105  6.547309027777778 1.54296875  6.725260416666666 1.6341145833333337  L 7.649739583333334 0.9375  C 7.688802083333334 0.8984375  7.740885416666666 0.87890625  7.805989583333334 0.87890625  C 7.8624131944444455 0.87890625  7.916666666666666 0.9006076388888884  7.96875 0.9440104166666663  C 8.528645833333334 1.460503472222222  8.88671875 1.8294270833333337  9.04296875 2.05078125  C 9.073350694444445 2.0855034722222223  9.088541666666666 2.133246527777777  9.088541666666666 2.194010416666666  C 9.088541666666666 2.24609375  9.071180555555557 2.296006944444443  9.036458333333334 2.34375  C 8.971354166666666 2.434895833333334  8.860677083333334 2.579210069444443  8.704427083333334 2.776692708333334  C 8.548177083333334 2.9741753472222223  8.430989583333334 3.1271701388888884  8.352864583333334 3.235677083333334  C 8.465711805555557 3.4526909722222223  8.5546875 3.6653645833333326  8.619791666666666 3.873697916666666  L 9.811197916666666 4.055989583333334  C 9.867621527777779 4.064670138888888  9.913194444444445 4.091796874999999  9.947916666666666 4.137369791666666  Z " fill-rule="nonzero" fill="rgba(255, 255, 255, 1)" stroke="none" transform="matrix(1 0 0 1 317 227 )" class="fill" />
    <path d="M 6.178385416666666 6.178385416666668  C 6.50390625 5.852864583333332  6.666666666666666 5.460069444444445  6.666666666666666 5  C 6.666666666666666 4.5399305555555545  6.50390625 4.147135416666666  6.178385416666666 3.821614583333334  C 5.852864583333334 3.49609375  5.4600694444444455 3.333333333333334  5 3.333333333333334  C 4.539930555555555 3.333333333333334  4.147135416666667 3.49609375  3.821614583333333 3.821614583333334  C 3.49609375 4.147135416666666  3.333333333333333 4.5399305555555545  3.333333333333333 5  C 3.333333333333333 5.460069444444445  3.49609375 5.852864583333332  3.821614583333333 6.178385416666668  C 4.147135416666667 6.50390625  4.539930555555555 6.666666666666668  5 6.666666666666668  C 5.4600694444444455 6.666666666666668  5.852864583333334 6.50390625  6.178385416666666 6.178385416666668  Z " stroke-width="0" stroke-dasharray="0" stroke="rgba(255, 255, 255, 0)" fill="none" transform="matrix(1 0 0 1 317 227 )" class="stroke" mask="url(#Clip52)" />
    <path d="M 9.947916666666666 4.137369791666666  C 9.98263888888889 4.182942708333334  10 4.233940972222222  10 4.290364583333334  L 10 5.735677083333332  C 10 5.787760416666668  9.98263888888889 5.837673611111112  9.947916666666666 5.885416666666668  C 9.913194444444445 5.933159722222221  9.869791666666666 5.961371527777777  9.817708333333334 5.970052083333332  L 8.61328125 6.15234375  C 8.530815972222223 6.38671875  8.446180555555557 6.584201388888888  8.359375 6.744791666666668  C 8.511284722222223 6.961805555555555  8.743489583333334 7.261284722222221  9.055989583333334 7.643229166666666  C 9.09939236111111 7.6953125  9.12109375 7.749565972222222  9.12109375 7.805989583333334  C 9.12109375 7.8624131944444455  9.1015625 7.912326388888888  9.0625 7.955729166666666  C 8.9453125 8.116319444444445  8.73046875 8.350694444444445  8.41796875 8.658854166666666  C 8.10546875 8.96701388888889  7.9014756944444455 9.12109375  7.805989583333334 9.12109375  C 7.75390625 9.12109375  7.697482638888889 9.1015625  7.63671875 9.0625  L 6.73828125 8.359375  C 6.547309027777778 8.45920138888889  6.349826388888889 8.541666666666666  6.145833333333334 8.606770833333334  C 6.076388888888889 9.19704861111111  6.013454861111112 9.600694444444445  5.95703125 9.817708333333334  C 5.926649305555555 9.93923611111111  5.848524305555555 10  5.72265625 10  L 4.27734375 10  C 4.216579861111112 10  4.163411458333333 9.981553819444445  4.117838541666667 9.944661458333334  C 4.072265625 9.907769097222221  4.047309027777779 9.86111111111111  4.04296875 9.8046875  L 3.860677083333333 8.606770833333334  C 3.6480034722222228 8.53732638888889  3.4526909722222228 8.45703125  3.274739583333333 8.365885416666666  L 2.3567708333333335 9.0625  C 2.313368055555556 9.1015625  2.2591145833333335 9.12109375  2.1940104166666665 9.12109375  C 2.1332465277777777 9.12109375  2.078993055555556 9.097222222222221  2.03125 9.049479166666666  C 1.484375 8.5546875  1.1263020833333333 8.190104166666666  0.95703125 7.955729166666666  C 0.9266493055555557 7.912326388888888  0.9114583333333333 7.8624131944444455  0.9114583333333333 7.805989583333334  C 0.9114583333333333 7.75390625  0.9288194444444446 7.7039930555555545  0.9635416666666667 7.65625  C 1.0286458333333333 7.565104166666666  1.1393229166666667 7.420789930555555  1.2955729166666665 7.223307291666668  C 1.4518229166666665 7.025824652777777  1.5690104166666665 6.872829861111109  1.6471354166666665 6.764322916666668  C 1.5299479166666665 6.547309027777777  1.4409722222222223 6.332465277777777  1.3802083333333335 6.119791666666668  L 0.18880208333333331 5.944010416666668  C 0.13237847222222224 5.935329861111112  0.08680555555555555 5.908203125  0.05208333333333333 5.862630208333332  C 0.017361111111111112 5.817057291666668  0 5.766059027777777  0 5.709635416666668  L 0 4.264322916666666  C 0 4.212239583333334  0.017361111111111112 4.162326388888888  0.05208333333333333 4.114583333333334  C 0.08680555555555555 4.066840277777778  0.12803819444444445 4.038628472222222  0.17578125 4.029947916666666  L 1.38671875 3.84765625  C 1.4474826388888888 3.6480034722222223  1.5321180555555556 3.448350694444444  1.640625 3.248697916666666  C 1.4670138888888888 3.001302083333334  1.234809027777778 2.701822916666666  0.9440104166666667 2.350260416666666  C 0.900607638888889 2.298177083333334  0.87890625 2.24609375  0.87890625 2.194010416666666  C 0.87890625 2.1506076388888884  0.8984375 2.100694444444443  0.9375 2.044270833333334  C 1.0503472222222223 1.8880208333333337  1.264105902777778 1.6547309027777768  1.5787760416666665 1.3444010416666663  C 1.8934461805555558 1.0340711805555547  2.098524305555556 0.87890625  2.1940104166666665 0.87890625  C 2.2504340277777777 0.87890625  2.3068576388888893 0.9006076388888884  2.36328125 0.9440104166666663  L 3.26171875 1.640625  C 3.4526909722222228 1.5407986111111105  3.6501736111111116 1.4583333333333337  3.854166666666667 1.3932291666666663  C 3.9236111111111116 0.8029513888888884  3.986545138888889 0.3993055555555547  4.04296875 0.1822916666666663  C 4.073350694444445 0.060763888888888395  4.151475694444445 0  4.27734375 0  L 5.72265625 0  C 5.783420138888889 0  5.836588541666666 0.018446180555554692  5.882161458333334 0.0553385416666663  C 5.927734375 0.09223090277777679  5.952690972222222 0.1388888888888884  5.95703125 0.1953125  L 6.139322916666666 1.3932291666666663  C 6.351996527777778 1.4626736111111105  6.547309027777778 1.54296875  6.725260416666666 1.6341145833333337  L 7.649739583333334 0.9375  C 7.688802083333334 0.8984375  7.740885416666666 0.87890625  7.805989583333334 0.87890625  C 7.8624131944444455 0.87890625  7.916666666666666 0.9006076388888884  7.96875 0.9440104166666663  C 8.528645833333334 1.460503472222222  8.88671875 1.8294270833333337  9.04296875 2.05078125  C 9.073350694444445 2.0855034722222223  9.088541666666666 2.133246527777777  9.088541666666666 2.194010416666666  C 9.088541666666666 2.24609375  9.071180555555557 2.296006944444443  9.036458333333334 2.34375  C 8.971354166666666 2.434895833333334  8.860677083333334 2.579210069444443  8.704427083333334 2.776692708333334  C 8.548177083333334 2.9741753472222223  8.430989583333334 3.1271701388888884  8.352864583333334 3.235677083333334  C 8.465711805555557 3.4526909722222223  8.5546875 3.6653645833333326  8.619791666666666 3.873697916666666  L 9.811197916666666 4.055989583333334  C 9.867621527777779 4.064670138888888  9.913194444444445 4.091796874999999  9.947916666666666 4.137369791666666  Z " stroke-width="0" stroke-dasharray="0" stroke="rgba(255, 255, 255, 0)" fill="none" transform="matrix(1 0 0 1 317 227 )" class="stroke" mask="url(#Clip52)" />
  </g>
</svg>