<?xml version="1.0" encoding="utf-8"?>
<svg version="1.1" xmlns:xlink="http://www.w3.org/1999/xlink" width="19px" height="14px" xmlns="http://www.w3.org/2000/svg">
  <defs>
    <pattern id="BGPattern" patternUnits="userSpaceOnUse" alignment="0 0" imageRepeat="None" />
    <mask fill="white" id="Clip48">
      <path d="M 18.764973958333336 11.4078125  C 18.92165798611111 11.546354166666667  19 11.710416666666667  19 11.9  L 19 13.299999999999999  C 19 13.489583333333332  18.92165798611111 13.653645833333332  18.764973958333336 13.792187499999999  C 18.608289930555557 13.930729166666667  18.422743055555557 14  18.208333333333336 14  L 0.7916666666666666 14  C 0.5772569444444445 14  0.3917100694444444 13.930729166666667  0.23502604166666666 13.792187499999999  C 0.0783420138888889 13.653645833333332  0 13.489583333333332  0 13.299999999999999  L 0 11.9  C 0 11.710416666666667  0.0783420138888889 11.546354166666667  0.23502604166666666 11.4078125  C 0.3917100694444444 11.269270833333334  0.5772569444444445 11.200000000000001  0.7916666666666666 11  L 18.208333333333336 11  C 18.422743055555557 11.200000000000001  18.608289930555557 11.269270833333334  18.764973958333336 11.4078125  Z M 18.764973958333336 5.807812499999999  C 18.92165798611111 5.946354166666666  19 6.110416666666666  19 6.299999999999999  L 19 7.700000000000001  C 19 7.8895833333333325  18.92165798611111 8.053645833333333  18.764973958333336 8.192187500000001  C 18.608289930555557 8.330729166666666  18.422743055555557 8.4  18.208333333333336 8.4  L 0.7916666666666666 8.4  C 0.5772569444444445 8.4  0.3917100694444444 8.330729166666666  0.23502604166666666 8.192187500000001  C 0.0783420138888889 8.053645833333333  0 7.8895833333333325  0 7.700000000000001  L 0 6.299999999999999  C 0 6.110416666666666  0.0783420138888889 5.946354166666666  0.23502604166666666 5.807812499999999  C 0.3917100694444444 5.669270833333334  0.5772569444444445 5.6000000000000005  0.7916666666666666 5.6000000000000005  L 18.208333333333336 5.6000000000000005  C 18.422743055555557 5.6000000000000005  18.608289930555557 5.669270833333334  18.764973958333336 5.807812499999999  Z M 18.764973958333336 0.20781250000000062  C 18.92165798611111 0.34635416666666563  19 0.5104166666666656  19 0.7000000000000006  L 19 2.1000000000000005  C 19 2.289583333333332  18.92165798611111 2.453645833333332  18.764973958333336 2.5921875000000005  C 18.608289930555557 2.7307291666666655  18.422743055555557 2.7999999999999994  18.208333333333336 3  L 0.7916666666666666 3  C 0.5772569444444445 2.7999999999999994  0.3917100694444444 2.7307291666666655  0.23502604166666666 2.5921875000000005  C 0.0783420138888889 2.453645833333332  0 2.289583333333332  0 2.1000000000000005  L 0 0.7000000000000006  C 0 0.5104166666666656  0.0783420138888889 0.34635416666666563  0.23502604166666666 0.20781250000000062  C 0.3917100694444444 0.0692708333333325  0.5772569444444445 0  0.7916666666666666 0  L 18.208333333333336 0  C 18.422743055555557 0  18.608289930555557 0.0692708333333325  18.764973958333336 0.20781250000000062  Z " fill-rule="evenodd" />
    </mask>
  </defs>
  <g transform="matrix(1 0 0 1 -17 -37 )">
    <path d="M 18.764973958333336 11.4078125  C 18.92165798611111 11.546354166666667  19 11.710416666666667  19 11.9  L 19 13.299999999999999  C 19 13.489583333333332  18.92165798611111 13.653645833333332  18.764973958333336 13.792187499999999  C 18.608289930555557 13.930729166666667  18.422743055555557 14  18.208333333333336 14  L 0.7916666666666666 14  C 0.5772569444444445 14  0.3917100694444444 13.930729166666667  0.23502604166666666 13.792187499999999  C 0.0783420138888889 13.653645833333332  0 13.489583333333332  0 13.299999999999999  L 0 11.9  C 0 11.710416666666667  0.0783420138888889 11.546354166666667  0.23502604166666666 11.4078125  C 0.3917100694444444 11.269270833333334  0.5772569444444445 11.200000000000001  0.7916666666666666 11  L 18.208333333333336 11  C 18.422743055555557 11.200000000000001  18.608289930555557 11.269270833333334  18.764973958333336 11.4078125  Z M 18.764973958333336 5.807812499999999  C 18.92165798611111 5.946354166666666  19 6.110416666666666  19 6.299999999999999  L 19 7.700000000000001  C 19 7.8895833333333325  18.92165798611111 8.053645833333333  18.764973958333336 8.192187500000001  C 18.608289930555557 8.330729166666666  18.422743055555557 8.4  18.208333333333336 8.4  L 0.7916666666666666 8.4  C 0.5772569444444445 8.4  0.3917100694444444 8.330729166666666  0.23502604166666666 8.192187500000001  C 0.0783420138888889 8.053645833333333  0 7.8895833333333325  0 7.700000000000001  L 0 6.299999999999999  C 0 6.110416666666666  0.0783420138888889 5.946354166666666  0.23502604166666666 5.807812499999999  C 0.3917100694444444 5.669270833333334  0.5772569444444445 5.6000000000000005  0.7916666666666666 5.6000000000000005  L 18.208333333333336 5.6000000000000005  C 18.422743055555557 5.6000000000000005  18.608289930555557 5.669270833333334  18.764973958333336 5.807812499999999  Z M 18.764973958333336 0.20781250000000062  C 18.92165798611111 0.34635416666666563  19 0.5104166666666656  19 0.7000000000000006  L 19 2.1000000000000005  C 19 2.289583333333332  18.92165798611111 2.453645833333332  18.764973958333336 2.5921875000000005  C 18.608289930555557 2.7307291666666655  18.422743055555557 2.7999999999999994  18.208333333333336 3  L 0.7916666666666666 3  C 0.5772569444444445 2.7999999999999994  0.3917100694444444 2.7307291666666655  0.23502604166666666 2.5921875000000005  C 0.0783420138888889 2.453645833333332  0 2.289583333333332  0 2.1000000000000005  L 0 0.7000000000000006  C 0 0.5104166666666656  0.0783420138888889 0.34635416666666563  0.23502604166666666 0.20781250000000062  C 0.3917100694444444 0.0692708333333325  0.5772569444444445 0  0.7916666666666666 0  L 18.208333333333336 0  C 18.422743055555557 0  18.608289930555557 0.0692708333333325  18.764973958333336 0.20781250000000062  Z " fill-rule="nonzero" fill="rgba(255, 255, 255, 0)" stroke="none" transform="matrix(1 0 0 1 17 37 )" class="fill" />
    <path d="M 18.764973958333336 11.4078125  C 18.92165798611111 11.546354166666667  19 11.710416666666667  19 11.9  L 19 13.299999999999999  C 19 13.489583333333332  18.92165798611111 13.653645833333332  18.764973958333336 13.792187499999999  C 18.608289930555557 13.930729166666667  18.422743055555557 14  18.208333333333336 14  L 0.7916666666666666 14  C 0.5772569444444445 14  0.3917100694444444 13.930729166666667  0.23502604166666666 13.792187499999999  C 0.0783420138888889 13.653645833333332  0 13.489583333333332  0 13.299999999999999  L 0 11.9  C 0 11.710416666666667  0.0783420138888889 11.546354166666667  0.23502604166666666 11.4078125  C 0.3917100694444444 11.269270833333334  0.5772569444444445 11.200000000000001  0.7916666666666666 11  L 18.208333333333336 11  C 18.422743055555557 11.200000000000001  18.608289930555557 11.269270833333334  18.764973958333336 11.4078125  Z " stroke-width="2" stroke-dasharray="0" stroke="rgba(255, 255, 255, 1)" fill="none" transform="matrix(1 0 0 1 17 37 )" class="stroke" mask="url(#Clip48)" />
    <path d="M 18.764973958333336 5.807812499999999  C 18.92165798611111 5.946354166666666  19 6.110416666666666  19 6.299999999999999  L 19 7.700000000000001  C 19 7.8895833333333325  18.92165798611111 8.053645833333333  18.764973958333336 8.192187500000001  C 18.608289930555557 8.330729166666666  18.422743055555557 8.4  18.208333333333336 8.4  L 0.7916666666666666 8.4  C 0.5772569444444445 8.4  0.3917100694444444 8.330729166666666  0.23502604166666666 8.192187500000001  C 0.0783420138888889 8.053645833333333  0 7.8895833333333325  0 7.700000000000001  L 0 6.299999999999999  C 0 6.110416666666666  0.0783420138888889 5.946354166666666  0.23502604166666666 5.807812499999999  C 0.3917100694444444 5.669270833333334  0.5772569444444445 5.6000000000000005  0.7916666666666666 5.6000000000000005  L 18.208333333333336 5.6000000000000005  C 18.422743055555557 5.6000000000000005  18.608289930555557 5.669270833333334  18.764973958333336 5.807812499999999  Z " stroke-width="2" stroke-dasharray="0" stroke="rgba(255, 255, 255, 1)" fill="none" transform="matrix(1 0 0 1 17 37 )" class="stroke" mask="url(#Clip48)" />
    <path d="M 18.764973958333336 0.20781250000000062  C 18.92165798611111 0.34635416666666563  19 0.5104166666666656  19 0.7000000000000006  L 19 2.1000000000000005  C 19 2.289583333333332  18.92165798611111 2.453645833333332  18.764973958333336 2.5921875000000005  C 18.608289930555557 2.7307291666666655  18.422743055555557 2.7999999999999994  18.208333333333336 3  L 0.7916666666666666 3  C 0.5772569444444445 2.7999999999999994  0.3917100694444444 2.7307291666666655  0.23502604166666666 2.5921875000000005  C 0.0783420138888889 2.453645833333332  0 2.289583333333332  0 2.1000000000000005  L 0 0.7000000000000006  C 0 0.5104166666666656  0.0783420138888889 0.34635416666666563  0.23502604166666666 0.20781250000000062  C 0.3917100694444444 0.0692708333333325  0.5772569444444445 0  0.7916666666666666 0  L 18.208333333333336 0  C 18.422743055555557 0  18.608289930555557 0.0692708333333325  18.764973958333336 0.20781250000000062  Z " stroke-width="2" stroke-dasharray="0" stroke="rgba(255, 255, 255, 1)" fill="none" transform="matrix(1 0 0 1 17 37 )" class="stroke" mask="url(#Clip48)" />
  </g>
</svg>